<?xml version="1.0" encoding="UTF-8" standalone="no"?>
<!-- Generator: Adobe Illustrator 23.0.3, SVG Export Plug-In . SVG Version: 6.00 Build 0)  -->

<svg
   xmlns:dc="http://purl.org/dc/elements/1.1/"
   xmlns:cc="http://creativecommons.org/ns#"
   xmlns:rdf="http://www.w3.org/1999/02/22-rdf-syntax-ns#"
   xmlns:svg="http://www.w3.org/2000/svg"
   xmlns="http://www.w3.org/2000/svg"
   xmlns:sodipodi="http://sodipodi.sourceforge.net/DTD/sodipodi-0.dtd"
   xmlns:inkscape="http://www.inkscape.org/namespaces/inkscape"
   version="1.1"
   x="0px"
   y="0px"
   viewBox="0 0 747.6 659.1"
   style="enable-background:new 0 0 747.6 659.1;"
   xml:space="preserve"
   id="svg316"
   sodipodi:docname="helpdesk-hero.svg"
   inkscape:version="0.92.4 (5da689c313, 2019-01-14)"><metadata
   id="metadata322"><rdf:RDF><cc:Work
       rdf:about=""><dc:format>image/svg+xml</dc:format><dc:type
         rdf:resource="http://purl.org/dc/dcmitype/StillImage" /></cc:Work></rdf:RDF></metadata><defs
   id="defs320">
	
	
	
	
	
	
	
	
	
	
	
	
	
	
	
	
	
	
	
	
	
	
	
	
	
	
	
	
	
	
	
	
	
	
	
	
	
	
	
	
	
	
	
	
	
	
	
	
	
	
	
	
	
	
	
	
	
	
	
	
	
	
	
	
	
	
	
	
	
	
	
	
	
	
	
	
	
	
	
	
	
	
	
	
	
	
	
	
	
	
	
	
	
	
	
	
	
	
	
	
	
	
	
	
	
	
	
	
	
	
	
	
	
	
	
	
	
	
	
	
	
	
	
	
	
	
	
	
	
	
	
	
	
	
	
	
		<linearGradient
   gradientTransform="matrix(1,0,0,-1,0,626.4456)"
   y2="-1036.9232"
   x2="3796.6292"
   y1="1069.5779"
   x1="1690.1272"
   gradientUnits="userSpaceOnUse"
   id="SVGID_2_">
		<stop
   id="stop284"
   style="stop-color:#5DBEE5"
   offset="0" />
		<stop
   id="stop286"
   style="stop-color:#4689C8"
   offset="1" />
	</linearGradient>
	
	<linearGradient
   y2="-998.21167"
   x2="-996.84137"
   y1="-998.21167"
   x1="-996.84137"
   gradientUnits="userSpaceOnUse"
   id="SVGID_3_">
		<stop
   id="stop291"
   style="stop-color:#5DBEE5"
   offset="0" />
		<stop
   id="stop293"
   style="stop-color:#4689C8"
   offset="1" />
	</linearGradient>
	
</defs><sodipodi:namedview
   pagecolor="#ffffff"
   bordercolor="#666666"
   borderopacity="1"
   objecttolerance="10"
   gridtolerance="10"
   guidetolerance="10"
   inkscape:pageopacity="0"
   inkscape:pageshadow="2"
   inkscape:window-width="1920"
   inkscape:window-height="1027"
   id="namedview318"
   showgrid="false"
   inkscape:zoom="0.71612808"
   inkscape:cx="758.08228"
   inkscape:cy="476.72192"
   inkscape:window-x="1358"
   inkscape:window-y="-8"
   inkscape:window-maximized="1"
   inkscape:current-layer="svg316" />
<style
   type="text/css"
   id="style2">
	.st0{opacity:0.7;fill:url(#SVGID_1_);}
	.st1{fill:#F0F3FA;}
	.st2{fill:#CDDCF5;}
	.st3{fill:#3E8EDE;}
	.st4{fill:#3A8DDE;}
	.st5{fill:#FFFFFF;}
	.st6{fill:#DCE6F8;}
	.st7{opacity:0.5;fill:#FFFFFF;enable-background:new    ;}
	.st8{opacity:0.8;fill:#618EB3;enable-background:new    ;}
	.st9{opacity:0.4;}
	.st10{fill:#C0ECE7;}
	.st11{fill:#31507F;}
	.st12{fill:#5BB6B1;}
	.st13{opacity:0.8;fill:#FFC844;enable-background:new    ;}
	.st14{fill:#81A5C2;}
	.st15{fill:#96B9EB;}
	.st16{opacity:0.5;fill:#96B9EB;enable-background:new    ;}
	.st17{fill:#446CA9;}
	.st18{fill:#C9B2D0;enable-background:new    ;}
	.st19{fill:#5B3E63;}
	.st20{opacity:0.5;fill:#A57FB0;enable-background:new    ;}
	.st21{fill:#E9F5F3;}
	.st22{opacity:0.5;fill:#FFC844;enable-background:new    ;}
	.st23{fill:#23978B;}
	.st24{opacity:0.6;fill:#96B9EB;enable-background:new    ;}
	.st25{fill:#D8DFE1;}
	.st26{fill:none;stroke:#FEC751;stroke-width:2;stroke-linecap:round;stroke-linejoin:round;stroke-miterlimit:10;}
	.st27{fill:none;stroke:#FEC751;stroke-width:2.5;stroke-linecap:round;stroke-linejoin:round;stroke-miterlimit:10;}
	.st28{fill:#90A3CB;}
	.st29{fill:#FFBDB9;}
	.st30{fill:#003A5D;}
	.st31{fill:#FF767A;}
	.st32{opacity:0.2;fill:url(#SVGID_2_);enable-background:new    ;}
	.st33{fill:url(#SVGID_3_);}
	.st34{display:none;}
	.st35{display:inline;fill:none;stroke:#FE0000;stroke-linecap:round;stroke-linejoin:round;stroke-miterlimit:10;}
</style>
<g
   id="Layer_3">
	<linearGradient
   id="SVGID_1_"
   gradientUnits="userSpaceOnUse"
   x1="51.3158"
   y1="584.15948"
   x2="548.24969"
   y2="297.25449">
		<stop
   offset="0"
   style="stop-color:#B1C8F0"
   id="stop4" />
		<stop
   offset="1"
   style="stop-color:#3A8DEE"
   id="stop6" />
	</linearGradient>
	<path
   class="st0"
   d="m 222.7,252 c 0,0 100.1,101.8 -37.3,152.8 -53.9,19.9 -123.8,54.2 -143.7,113.1 -10.6,31.4 2.9,65.9 27.8,86.4 18.5,15.3 42.4,21.7 65.6,25.6 50.6,8.5 103,7.3 154.1,4.9 52.8,-2.5 105.5,-7.6 157.9,-14.1 28.7,-3.5 57.4,-7.4 85.9,-12 0.7,-0.1 1.3,-0.2 2,-0.3 5.8,-1 11.7,-1.6 17.5,-2.7 38.1,-7 91.2,-20.7 109.8,-58.8 12.3,-25.2 1.3,-52.8 -13.2,-74.4 -12.9,-19.1 -29.6,-38 -47.6,-52.4 -24.3,-19.4 -47.1,-40 -70.4,-60.8 -19.6,-17.5 -39,-35.4 -58,-53.6 -29.2,-27.8 -57.6,-56.6 -87.1,-84 -40.8,-38 -84.3,-71.1 -142.9,-66.4 -105.3,8.5 -20.4,96.7 -20.4,96.7 z"
   id="path9"
   inkscape:connector-curvature="0"
   style="opacity:0.7;fill:url(#SVGID_1_)" />
</g>
<path
   style="fill:#f0f3fa"
   inkscape:connector-curvature="0"
   id="path12"
   d="M 229.4,143.2 564.6,88.4 c 0.8,-0.1 1.7,-0.1 2.5,0.1 0.8,0.2 1.6,0.6 2.2,1.2 0.6,0.5 1.2,1.2 1.5,2 0.4,0.8 0.5,1.6 0.5,2.4 v 366.4 c 0,0.8 -0.2,1.6 -0.5,2.3 -0.3,0.7 -0.8,1.4 -1.4,1.9 -0.6,0.5 -1.3,1 -2,1.2 -0.7,0.2 -1.6,0.4 -2.4,0.3 L 229.8,437.4 c -1.4,-0.1 -2.8,-0.8 -3.8,-1.9 -1,-1.1 -1.5,-2.5 -1.5,-3.9 V 148.9 c 0,-1.4 0.5,-2.7 1.4,-3.7 1,-1.1 2.2,-1.8 3.5,-2 z"
   class="st1" /><path
   style="fill:#cddcf5"
   inkscape:connector-curvature="0"
   id="path14"
   d="m 273.4,136 -44,7.2 c -1.3,0.2 -2.6,0.9 -3.4,2 -0.9,1 -1.4,2.4 -1.4,3.7 v 282.8 c 0,1.4 0.5,2.8 1.5,3.9 1,1.1 2.3,1.7 3.8,1.9 l 43.5,3.7 z"
   class="st2" /><path
   style="fill:#3e8ede"
   inkscape:connector-curvature="0"
   id="path16"
   d="m 564.7,88.4 -335.2,54.8 c -1.3,0.2 -2.6,0.9 -3.4,2 -0.9,1 -1.4,2.4 -1.4,3.7 V 164 L 571.4,112.4 V 94.1 c 0,-0.8 -0.2,-1.7 -0.5,-2.4 -0.3,-0.8 -0.9,-1.4 -1.5,-2 -0.6,-0.5 -1.4,-0.9 -2.2,-1.2 -0.9,-0.2 -1.7,-0.2 -2.5,-0.1 z"
   class="st3" /><path
   style="fill:#f0f3fa"
   inkscape:connector-curvature="0"
   id="path18"
   d="m 256.8,152.7 c 1.3,0 2.4,-1.3 2.4,-2.9 0,-1.6 -1.1,-2.9 -2.4,-2.9 -1.3,0 -2.4,1.3 -2.4,2.9 0,1.6 1.1,2.9 2.4,2.9 z"
   class="st1" /><path
   style="fill:#f0f3fa"
   inkscape:connector-curvature="0"
   id="path20"
   d="m 247.2,154.2 c 1.3,0 2.4,-1.3 2.4,-2.9 0,-1.6 -1.1,-2.9 -2.4,-2.9 -1.3,0 -2.4,1.3 -2.4,2.9 0,1.6 1.1,2.9 2.4,2.9 z"
   class="st1" /><path
   style="fill:#f0f3fa"
   inkscape:connector-curvature="0"
   id="path22"
   d="m 237.6,155.7 c 1.3,0 2.4,-1.3 2.4,-2.9 0,-1.6 -1.1,-2.9 -2.4,-2.9 -1.3,0 -2.4,1.3 -2.4,2.9 0,1.7 1.1,2.9 2.4,2.9 z"
   class="st1" /><path
   style="fill:#3a8dde"
   inkscape:connector-curvature="0"
   id="path24"
   d="m 249.9,207.8 c 0.9,-0.2 1.7,-0.7 2.4,-1.2 0.5,-0.4 1,-0.9 1.4,-1.4 0.5,-0.5 0.9,-1.2 1.1,-1.8 0.1,-0.3 0.2,-0.6 0.3,-0.9 0.2,-1.1 0.3,-2.1 0.3,-3.2 l -4.2,0.6 1.4,1.4 c 0.1,0.1 0.1,0.2 0.1,0.3 0,0.7 -0.2,1.4 -0.6,2.1 -0.4,0.6 -0.9,1.2 -1.5,1.6 -0.6,0.3 -1.2,0.5 -1.9,0.6 l -1.6,2.3 c 1,0 2.3,-0.2 2.8,-0.4 z"
   class="st4" /><path
   style="fill:#3a8dde"
   inkscape:connector-curvature="0"
   id="path26"
   d="m 257.8,198 c 0.8,-0.1 1.5,-0.3 2.2,-0.7 0.7,-0.4 1.3,-0.9 1.7,-1.5 l -9.3,1.3 -1,1.8 z"
   class="st4" /><path
   style="fill:#3a8dde"
   inkscape:connector-curvature="0"
   id="path28"
   d="m 254,182.4 c -0.7,-0.8 -1.6,-1.3 -2.6,-1.4 -0.9,-0.1 -1.7,-0.1 -2.6,0.1 l -4.4,0.6 c 0.3,0.3 0.5,0.6 0.7,1 0.1,0.4 0.2,0.8 0.2,1.2 0,0.1 -0.1,0.3 -0.2,0.4 -0.1,0.1 -0.2,0.2 -0.4,0.2 -0.1,0 -0.1,0 -0.2,0 -0.1,0 -0.1,0 -0.2,-0.1 -0.1,0 -0.1,-0.1 -0.1,-0.2 0,-0.1 0,-0.1 0,-0.2 0,-0.3 0,-0.6 -0.1,-0.9 -0.1,-0.3 -0.3,-0.5 -0.5,-0.7 -0.6,-0.4 -1.3,-0.5 -2,-0.3 l -4.3,0.6 c -0.2,0 -0.4,0.1 -0.6,0.3 -0.2,0.2 -0.2,0.5 -0.2,0.7 V 195 c 0,0.7 0.1,1.4 0.4,2.1 0.3,0.7 0.7,1.3 1.1,1.8 1.2,1 2.6,1.4 4.1,1.3 l 4.8,-0.7 c -0.8,-0.7 -1.3,-1.7 -1.4,-2.8 0,-0.1 0,-0.3 0.1,-0.4 0.1,-0.1 0.2,-0.2 0.4,-0.2 0.1,0 0.1,0 0.2,0 0.1,0 0.1,0 0.2,0.1 0.1,0 0.1,0.1 0.1,0.1 0,0.1 0.1,0.1 0.1,0.2 0,0.1 0.3,3.1 3.1,2.7 h 0.3 l 1.7,-3.2 3.8,-0.5 v -8.9 c 0,-0.7 -0.1,-1.5 -0.3,-2.2 -0.3,-0.8 -0.7,-1.5 -1.2,-2 z m -2.2,9.1 -3.4,-1.1 c 1.2,-2.4 4.1,-1.4 3.4,1.1 z"
   class="st4" /><path
   style="fill:#ffffff"
   inkscape:connector-curvature="0"
   id="path30"
   d="m 380.5,337.2 h 164 c 1.5,0 3,0.6 4.1,1.7 1.1,1.1 1.7,2.5 1.7,4.1 v 83.1 c 0,0.8 -0.2,1.6 -0.5,2.3 -0.3,0.7 -0.8,1.4 -1.3,1.9 -0.6,0.5 -1.3,1 -2,1.2 -0.7,0.3 -1.5,0.4 -2.3,0.3 l -164,-10.6 c -1.5,-0.1 -2.8,-0.7 -3.8,-1.8 -1,-1.1 -1.6,-2.5 -1.6,-3.9 V 343 c 0,-0.8 0.1,-1.5 0.4,-2.2 0.3,-0.7 0.7,-1.3 1.3,-1.9 0.5,-0.5 1.2,-1 1.9,-1.2 0.6,-0.3 1.4,-0.5 2.1,-0.5 z"
   class="st5" /><path
   style="fill:#dce6f8"
   inkscape:connector-curvature="0"
   id="path32"
   d="m 392.4,390.5 132.9,5.3 c 1,0 1.9,0.5 2.6,1.2 0.7,0.7 1.1,1.7 1.1,2.7 v 13.5 c 0,0.5 -0.1,1 -0.3,1.5 -0.2,0.5 -0.5,0.9 -0.9,1.3 -0.4,0.4 -0.8,0.6 -1.3,0.8 -0.5,0.2 -1,0.3 -1.5,0.2 l -133,-7.4 c -1,-0.1 -1.9,-0.5 -2.6,-1.2 -0.7,-0.7 -1.1,-1.7 -1,-2.6 v -11.4 c 0,-0.5 0.1,-1 0.3,-1.5 0.2,-0.5 0.5,-0.9 0.9,-1.3 0.4,-0.4 0.8,-0.6 1.3,-0.8 0.5,-0.2 0.9,-0.3 1.5,-0.3 z"
   class="st6" /><path
   style="opacity:0.5;fill:#ffffff;enable-background:new"
   inkscape:connector-curvature="0"
   id="path34"
   d="m 414.3,377.4 -19,-0.5 c 0,0 -4.2,-6.2 -4.2,-10.1 0,-1.8 0.4,-3.6 1.1,-5.3 0.7,-1.7 1.7,-3.2 3,-4.4 1.3,-1.3 2.8,-2.3 4.5,-2.9 1.7,-0.7 3.5,-1 5.3,-0.9 3.7,0.1 7.2,1.7 9.7,4.4 2.5,2.7 3.9,6.2 3.9,9.9 0,3.8 -4.3,9.8 -4.3,9.8 z"
   class="st7" /><path
   style="opacity:0.8;fill:#618eb3;enable-background:new"
   inkscape:connector-curvature="0"
   id="path36"
   d="m 405.1,352.2 c -1.9,0 -3.8,0.3 -5.6,1 -1.8,0.7 -3.4,1.8 -4.8,3.1 -1.4,1.3 -2.5,2.9 -3.2,4.7 -0.8,1.8 -1.1,3.7 -1.2,5.6 0,3.9 1.4,7.7 4.2,10.6 2.7,2.8 6.4,4.5 10.4,4.6 1.9,0 3.8,-0.3 5.6,-1 1.8,-0.7 3.4,-1.8 4.8,-3.1 1.4,-1.3 2.5,-3 3.2,-4.7 0.8,-1.8 1.1,-3.7 1.1,-5.6 0,-3.9 -1.5,-7.7 -4.2,-10.5 -2.7,-2.9 -6.4,-4.6 -10.3,-4.7 z m 8.8,24.6 c -0.3,-3.9 -3.8,-7.2 -8.2,-7.7 -0.5,0 -1.1,0 -1.6,0 -4.4,0.2 -7.9,3.3 -8.3,7.2 -1.3,-1.3 -2.3,-2.8 -3,-4.4 -0.7,-1.7 -1,-3.4 -1,-5.2 0,-1.7 0.4,-3.4 1,-5 0.7,-1.6 1.7,-3 2.9,-4.2 1.2,-1.2 2.7,-2.2 4.3,-2.8 1.6,-0.6 3.3,-0.9 5,-0.9 3.5,0.1 6.8,1.6 9.3,4.2 2.4,2.5 3.8,5.9 3.7,9.4 0,1.8 -0.4,3.5 -1.1,5.2 -0.7,1.5 -1.7,3 -3,4.2 z"
   class="st8" /><path
   style="opacity:0.8;fill:#618eb3;enable-background:new"
   inkscape:connector-curvature="0"
   id="path38"
   d="m 405,358.4 c -0.6,0 -1.3,0.1 -1.8,0.3 -0.6,0.2 -1.1,0.6 -1.6,1 -0.5,0.4 -0.8,1 -1,1.6 -0.2,0.6 -0.4,1.2 -0.3,1.8 0,0.6 0.1,1.3 0.3,1.9 0.2,0.6 0.6,1.1 1,1.6 0.4,0.5 1,0.8 1.5,1.1 0.6,0.3 1.2,0.4 1.8,0.4 0.6,0 1.3,-0.1 1.9,-0.3 0.6,-0.2 1.1,-0.6 1.6,-1 0.5,-0.4 0.8,-1 1,-1.6 0.2,-0.6 0.4,-1.2 0.3,-1.8 0,-0.6 -0.1,-1.3 -0.3,-1.9 -0.2,-0.6 -0.6,-1.1 -1,-1.6 -0.4,-0.5 -1,-0.8 -1.5,-1.1 -0.6,-0.3 -1.3,-0.4 -1.9,-0.4 z"
   class="st8" /><g
   style="opacity:0.4"
   id="g42"
   class="st9">
		<path
   style="fill:#ffffff"
   inkscape:connector-curvature="0"
   id="path40"
   d="m 374.8,192.5 v 117.8 c 0,0.8 0.2,1.5 0.5,2.2 0.3,0.7 0.7,1.4 1.3,1.9 0.6,0.5 1.2,1 1.9,1.2 0.7,0.3 1.5,0.4 2.3,0.4 l 164,-1.9 c 1.5,0 2.9,-0.7 4,-1.8 1,-1.1 1.6,-2.5 1.6,-4 V 172 c 0,-0.8 -0.2,-1.6 -0.5,-2.4 -0.3,-0.8 -0.8,-1.4 -1.4,-2 -0.6,-0.5 -1.3,-1 -2.1,-1.2 -0.8,-0.2 -1.6,-0.3 -2.4,-0.2 l -164,20.6 c -1.4,0.2 -2.7,0.9 -3.6,1.9 -1.1,1.1 -1.6,2.4 -1.6,3.8 z"
   class="st5" />
	</g><path
   style="fill:#ffffff"
   inkscape:connector-curvature="0"
   id="path44"
   d="m 374.8,192.5 v 117.8 c 0,0.8 0.2,1.5 0.5,2.2 0.3,0.7 0.7,1.4 1.3,1.9 0.6,0.5 1.2,1 1.9,1.2 0.7,0.3 1.5,0.4 2.3,0.4 l 164,-1.9 c 1.5,0 2.9,-0.7 4,-1.8 1,-1.1 1.6,-2.5 1.6,-4 V 172 c 0,-0.8 -0.2,-1.6 -0.5,-2.4 -0.3,-0.8 -0.8,-1.4 -1.4,-2 -0.6,-0.5 -1.3,-1 -2.1,-1.2 -0.8,-0.2 -1.6,-0.3 -2.4,-0.2 l -164,20.6 c -1.4,0.2 -2.7,0.9 -3.6,1.9 -1.1,1.1 -1.6,2.4 -1.6,3.8 z"
   class="st5" /><path
   style="fill:#c0ece7"
   inkscape:connector-curvature="0"
   id="path46"
   d="m 392.5,301.2 132.8,-2.5 c 1,0 1.9,-0.5 2.6,-1.2 0.7,-0.7 1.1,-1.7 1.1,-2.7 l -0.2,-65.2 c 0,-0.5 -0.1,-1.1 -0.3,-1.6 -0.2,-0.5 -0.5,-0.9 -0.9,-1.3 -0.4,-0.4 -0.9,-0.6 -1.4,-0.8 -0.5,-0.2 -1,-0.2 -1.6,-0.2 l -132.8,11.4 c -1,0.1 -1.9,0.5 -2.5,1.2 -0.7,0.7 -1,1.6 -1,2.6 l 0.1,56.2 c 0,0.5 0.1,1 0.3,1.5 0.2,0.5 0.5,0.9 0.9,1.3 0.4,0.4 0.8,0.6 1.3,0.8 0.6,0.5 1.1,0.6 1.6,0.5 z"
   class="st10" /><path
   style="fill:#ffffff"
   inkscape:connector-curvature="0"
   id="path48"
   d="m 510.5,293.5 h -2.3 l 7,-11.5 h 2.3 z"
   class="st5" /><path
   style="fill:#ffffff"
   inkscape:connector-curvature="0"
   id="path50"
   d="m 518.5,293.3 h -2.3 l 2.8,-4.5 2.3,-0.1 z"
   class="st5" /><path
   style="fill:#f0f3fa"
   inkscape:connector-curvature="0"
   id="path52"
   d="m 415.2,222.1 -19.6,1.7 c 0,0 -4.4,-5.8 -4.4,-9.9 0.1,-3.9 1.6,-7.6 4.2,-10.4 2.6,-2.8 6.2,-4.6 10,-5 1.8,-0.2 3.6,0 5.3,0.6 1.7,0.6 3.3,1.5 4.6,2.7 1.3,1.2 2.4,2.7 3.1,4.4 0.7,1.7 1.1,3.5 1.1,5.3 0.1,4 -4.3,10.6 -4.3,10.6 z"
   class="st1" /><path
   style="fill:#31507f"
   inkscape:connector-curvature="0"
   id="path54"
   d="m 405.4,197.4 c -4.1,0.4 -7.9,2.3 -10.7,5.4 -2.8,3 -4.4,7 -4.4,11.1 0,1.9 0.3,3.9 1.1,5.6 0.8,1.8 1.9,3.4 3.3,4.7 1.4,1.3 3.1,2.3 5,2.9 1.9,0.6 3.8,0.8 5.7,0.6 4.1,-0.4 7.9,-2.4 10.7,-5.4 2.8,-3 4.4,-7 4.4,-11.1 0,-1.9 -0.3,-3.9 -1.1,-5.6 -0.8,-1.8 -1.9,-3.4 -3.3,-4.7 -1.4,-1.3 -3.1,-2.3 -5,-2.9 -1.8,-0.6 -3.8,-0.8 -5.7,-0.6 z m 9.3,24.1 c -0.4,-4 -4,-6.9 -8.5,-6.8 -0.6,0 -1.1,0.1 -1.7,0.1 -4.5,0.8 -8.1,4.3 -8.5,8.3 -1.3,-1.2 -2.4,-2.6 -3.1,-4.2 -0.7,-1.6 -1.1,-3.4 -1.1,-5.2 0.1,-3.7 1.5,-7.2 4,-9.9 2.5,-2.7 5.9,-4.4 9.6,-4.8 1.7,-0.2 3.5,0 5.1,0.5 1.7,0.5 3.2,1.4 4.5,2.6 1.3,1.2 2.3,2.6 3,4.2 0.7,1.6 1,3.3 1,5.1 -0.1,3.8 -1.6,7.4 -4.3,10.1 z"
   class="st11" /><path
   style="fill:#31507f"
   inkscape:connector-curvature="0"
   id="path56"
   d="m 405.4,203.8 c -1.3,0.1 -2.6,0.7 -3.5,1.7 -0.9,1 -1.4,2.3 -1.4,3.6 0,0.6 0.1,1.3 0.3,1.9 0.2,0.6 0.6,1.1 1.1,1.5 0.5,0.4 1,0.8 1.6,0.9 0.6,0.2 1.2,0.2 1.9,0.2 1.3,-0.1 2.6,-0.7 3.5,-1.7 0.9,-1 1.4,-2.3 1.4,-3.7 0,-0.6 -0.1,-1.3 -0.3,-1.9 -0.2,-0.6 -0.6,-1.1 -1.1,-1.5 -0.5,-0.4 -1,-0.7 -1.6,-0.9 -0.6,-0.1 -1.3,-0.2 -1.9,-0.1 z"
   class="st11" /><path
   style="fill:#31507f"
   inkscape:connector-curvature="0"
   id="path58"
   d="m 506.4,192.3 21.6,-2.4 c 0.2,0 0.5,-0.1 0.6,-0.3 0.2,-0.2 0.3,-0.4 0.2,-0.7 v -3.2 c 0,-0.1 0,-0.3 -0.1,-0.4 -0.1,-0.1 -0.1,-0.2 -0.2,-0.3 -0.1,-0.1 -0.2,-0.2 -0.4,-0.2 -0.1,0 -0.3,-0.1 -0.4,0 l -21.6,2.4 c -0.2,0 -0.5,0.1 -0.6,0.3 -0.2,0.2 -0.3,0.4 -0.3,0.6 v 3.2 c 0,0.1 0,0.3 0.1,0.4 0.1,0.1 0.1,0.2 0.2,0.3 0.1,0.1 0.2,0.2 0.4,0.2 0.2,0.2 0.4,0.2 0.5,0.1 z"
   class="st11" /><path
   style="fill:#31507f"
   inkscape:connector-curvature="0"
   id="path60"
   d="m 494.3,193.7 6.5,-0.7 c 0.2,0 0.5,-0.1 0.6,-0.3 0.2,-0.2 0.3,-0.4 0.2,-0.7 v -3.2 c 0,-0.1 0,-0.3 -0.1,-0.4 -0.1,-0.1 -0.1,-0.2 -0.2,-0.3 -0.1,-0.1 -0.2,-0.2 -0.4,-0.2 -0.1,0 -0.3,0 -0.4,0 l -6.5,0.7 c -0.2,0 -0.5,0.1 -0.6,0.3 -0.2,0.2 -0.3,0.4 -0.2,0.6 v 3.2 c 0,0.1 0,0.3 0.1,0.4 0.1,0.1 0.1,0.2 0.2,0.3 0.1,0.1 0.2,0.2 0.4,0.2 0.2,0.1 0.3,0.1 0.4,0.1 z"
   class="st11" /><path
   style="fill:#5bb6b1"
   inkscape:connector-curvature="0"
   id="path62"
   d="m 466.9,196.7 -31.5,3.8 c -0.1,0 -0.3,0 -0.4,0 -0.1,0 -0.3,-0.1 -0.4,-0.2 -0.1,-0.1 -0.2,-0.2 -0.2,-0.3 -0.1,-0.1 -0.1,-0.3 -0.1,-0.4 v -3.2 c 0,-0.2 0.1,-0.5 0.2,-0.6 0.2,-0.2 0.4,-0.3 0.6,-0.3 l 31.5,-3.8 c 0.1,0 0.3,0 0.4,0 0.1,0 0.3,0.1 0.4,0.2 0.1,0.1 0.2,0.2 0.2,0.3 0.1,0.1 0.1,0.3 0.1,0.4 v 3.2 c 0,0.2 -0.1,0.5 -0.2,0.6 -0.1,0.2 -0.3,0.3 -0.6,0.3 z"
   class="st12" /><path
   style="opacity:0.8;fill:#ffc844;enable-background:new"
   inkscape:connector-curvature="0"
   id="path64"
   d="m 517.2,205.3 10.9,-1 c 0.2,0 0.5,-0.1 0.6,-0.3 0.2,-0.2 0.3,-0.4 0.2,-0.6 v -3.2 c 0,-0.1 0,-0.3 -0.1,-0.4 -0.1,-0.1 -0.1,-0.2 -0.2,-0.3 -0.1,-0.1 -0.2,-0.2 -0.3,-0.2 -0.1,0 -0.3,-0.1 -0.4,0 l -10.9,1 c -0.2,0 -0.5,0.1 -0.6,0.3 -0.2,0.2 -0.3,0.4 -0.2,0.6 v 3.2 c 0,0.1 0,0.3 0.1,0.4 0.1,0.1 0.1,0.2 0.2,0.3 0.1,0.1 0.2,0.2 0.3,0.2 0.1,0 0.2,0 0.4,0 z"
   class="st13" /><path
   style="opacity:0.8;fill:#ffc844;enable-background:new"
   inkscape:connector-curvature="0"
   id="path66"
   d="m 497.8,206.9 13.8,-1.2 c 0.2,0 0.5,-0.1 0.6,-0.3 0.2,-0.2 0.3,-0.4 0.2,-0.6 v -3.2 c 0,-0.1 0,-0.3 -0.1,-0.4 -0.1,-0.1 -0.1,-0.2 -0.2,-0.3 -0.1,-0.1 -0.2,-0.2 -0.4,-0.2 -0.1,0 -0.3,-0.1 -0.4,-0.1 l -13.8,1.2 c -0.2,0 -0.5,0.1 -0.6,0.3 -0.2,0.2 -0.3,0.4 -0.2,0.7 v 3.2 c 0,0.1 0,0.3 0.1,0.4 0.1,0.1 0.1,0.2 0.2,0.3 0.1,0.1 0.2,0.2 0.3,0.2 0.1,0 0.4,0 0.5,0 z"
   class="st13" /><path
   style="fill:#31507f"
   inkscape:connector-curvature="0"
   id="path68"
   d="m 488.4,207.7 3.8,-0.3 c 0.2,0 0.5,-0.1 0.6,-0.3 0.2,-0.2 0.3,-0.4 0.3,-0.6 v -3.2 c 0,-0.1 0,-0.3 -0.1,-0.4 -0.1,-0.1 -0.1,-0.2 -0.2,-0.3 -0.1,-0.1 -0.2,-0.2 -0.3,-0.2 -0.1,0 -0.3,-0.1 -0.4,-0.1 l -3.8,0.3 c -0.2,0 -0.5,0.1 -0.6,0.3 -0.2,0.2 -0.3,0.4 -0.2,0.7 v 3.2 c 0,0.1 0,0.3 0.1,0.4 0.1,0.1 0.1,0.2 0.2,0.3 0.1,0.1 0.2,0.2 0.4,0.2 0.2,0 0.1,0 0.2,0 z"
   class="st11" /><path
   style="opacity:0.8;fill:#ffc844;enable-background:new"
   inkscape:connector-curvature="0"
   id="path70"
   d="m 463.4,209.8 -28,2.7 c -0.1,0 -0.3,0 -0.4,0 -0.1,0 -0.2,-0.1 -0.4,-0.2 -0.1,-0.1 -0.2,-0.2 -0.2,-0.3 -0.1,-0.1 -0.1,-0.3 -0.1,-0.4 v -3.2 c 0,-0.2 0.1,-0.5 0.2,-0.6 0.2,-0.2 0.4,-0.3 0.6,-0.3 l 28,-2.8 c 0.1,0 0.3,0 0.4,0 0.1,0 0.2,0.1 0.4,0.2 0.1,0.1 0.2,0.2 0.2,0.3 0.1,0.1 0.1,0.3 0.1,0.4 v 3.2 c 0,0.2 -0.1,0.5 -0.2,0.7 -0.1,0.2 -0.3,0.3 -0.6,0.3 z"
   class="st13" /><path
   style="fill:#5bb6b1"
   inkscape:connector-curvature="0"
   id="path72"
   d="m 520.7,215.8 7.4,-0.6 c 0.2,0 0.5,-0.1 0.6,-0.3 0.2,-0.2 0.3,-0.4 0.2,-0.7 V 211 c 0,-0.1 0,-0.3 -0.1,-0.4 -0.1,-0.1 -0.1,-0.2 -0.2,-0.3 -0.1,-0.1 -0.2,-0.2 -0.4,-0.2 -0.1,0 -0.3,-0.1 -0.4,-0.1 l -7.3,0.6 c -0.2,0 -0.5,0.1 -0.6,0.3 -0.2,0.2 -0.3,0.4 -0.2,0.7 v 3.2 c 0,0.1 0,0.3 0.1,0.4 0.1,0.1 0.1,0.2 0.2,0.3 0.1,0.1 0.2,0.2 0.3,0.2 0.1,0.1 0.3,0.1 0.4,0.1 z"
   class="st12" /><path
   style="fill:#5bb6b1"
   inkscape:connector-curvature="0"
   id="path74"
   d="m 513.9,216.3 1.2,-0.1 c 0.2,0 0.5,-0.1 0.6,-0.3 0.1,-0.2 0.3,-0.4 0.2,-0.6 v -3.2 c 0,-0.1 0,-0.3 -0.1,-0.4 -0.1,-0.1 -0.1,-0.2 -0.2,-0.3 -0.1,-0.1 -0.2,-0.2 -0.4,-0.2 -0.1,0 -0.3,-0.1 -0.4,-0.1 l -1.2,0.1 c -0.2,0 -0.5,0.1 -0.6,0.3 -0.2,0.2 -0.3,0.4 -0.3,0.7 v 3.2 c 0,0.1 0,0.3 0.1,0.4 0.1,0.1 0.1,0.2 0.2,0.3 0.1,0.1 0.2,0.2 0.4,0.2 0.3,0 0.4,0 0.5,0 z"
   class="st12" /><path
   style="opacity:0.8;fill:#ffc844;enable-background:new"
   inkscape:connector-curvature="0"
   id="path76"
   d="m 504.6,217 3.8,-0.3 c 0.2,0 0.5,-0.1 0.6,-0.3 0.2,-0.2 0.3,-0.4 0.2,-0.7 v -3.2 c 0,-0.1 0,-0.3 -0.1,-0.4 -0.1,-0.1 -0.1,-0.2 -0.2,-0.3 -0.1,-0.1 -0.2,-0.2 -0.4,-0.2 -0.1,0 -0.3,-0.1 -0.4,-0.1 l -3.8,0.3 c -0.2,0 -0.5,0.1 -0.6,0.3 -0.2,0.2 -0.3,0.4 -0.2,0.6 v 3.2 c 0,0.1 0,0.3 0.1,0.4 0.1,0.1 0.1,0.2 0.2,0.3 0.1,0.1 0.2,0.2 0.4,0.2 0.1,0.2 0.2,0.2 0.4,0.2 z"
   class="st13" /><path
   style="fill:#31507f"
   inkscape:connector-curvature="0"
   id="path78"
   d="m 448.1,221.9 -12.6,0.8 c -0.1,0 -0.3,0 -0.4,-0.1 -0.1,0 -0.3,-0.1 -0.4,-0.2 -0.1,-0.1 -0.2,-0.2 -0.2,-0.3 -0.1,-0.1 -0.1,-0.3 -0.1,-0.4 v -3.2 c 0,-0.2 0.1,-0.5 0.3,-0.7 0.2,-0.2 0.4,-0.3 0.6,-0.3 l 12.7,-0.8 c 0.1,0 0.3,0 0.4,0.1 0.1,0 0.3,0.1 0.4,0.2 0.1,0.1 0.2,0.2 0.2,0.3 0.1,0.1 0.1,0.3 0.1,0.4 v 3.2 c 0,0.2 -0.1,0.5 -0.3,0.7 -0.3,0.1 -0.5,0.2 -0.7,0.3 z"
   class="st11" /><path
   style="fill:#81a5c2"
   inkscape:connector-curvature="0"
   id="path80"
   d="m 502.3,359.8 26.1,0.3 c 0.3,0 0.5,-0.1 0.7,-0.3 0.2,-0.2 0.3,-0.4 0.3,-0.7 v -4.4 c 0,-0.1 0,-0.2 -0.1,-0.3 0,-0.1 -0.1,-0.2 -0.2,-0.3 -0.1,-0.1 -0.2,-0.2 -0.3,-0.2 -0.1,0 -0.2,-0.1 -0.3,-0.1 l -26.1,-0.3 c -0.3,0 -0.5,0.1 -0.7,0.3 -0.2,0.2 -0.3,0.4 -0.3,0.7 v 4.4 c 0,0.1 0,0.2 0.1,0.3 0,0.1 0.1,0.2 0.2,0.3 0.1,0.1 0.2,0.2 0.3,0.2 0.1,0.1 0.2,0.1 0.3,0.1 z"
   class="st14" /><path
   style="fill:#96b9eb"
   inkscape:connector-curvature="0"
   id="path82"
   d="m 487.9,359.6 8.2,0.1 c 0.3,0 0.5,-0.1 0.7,-0.3 0.2,-0.2 0.3,-0.4 0.3,-0.7 v -4.4 c 0,-0.1 0,-0.2 -0.1,-0.3 0,-0.1 -0.1,-0.2 -0.2,-0.3 -0.1,-0.1 -0.2,-0.2 -0.3,-0.2 -0.1,0 -0.2,-0.1 -0.3,-0.1 l -8.2,-0.1 c -0.3,0 -0.5,0.1 -0.7,0.3 -0.2,0.2 -0.3,0.4 -0.3,0.7 v 4.4 c 0,0.1 0,0.2 0.1,0.3 0,0.1 0.1,0.2 0.2,0.3 0.1,0.1 0.2,0.2 0.3,0.2 0.1,0.1 0.2,0.1 0.3,0.1 z"
   class="st15" /><path
   style="fill:#81a5c2"
   inkscape:connector-curvature="0"
   id="path84"
   d="m 476.8,359.5 h 4.9 c 0.3,0 0.5,-0.1 0.7,-0.3 0.2,-0.2 0.3,-0.4 0.3,-0.7 v -4.4 c 0,-0.1 0,-0.2 -0.1,-0.3 0,-0.1 -0.1,-0.2 -0.2,-0.3 -0.1,-0.1 -0.2,-0.2 -0.3,-0.2 -0.1,0 -0.2,-0.1 -0.3,-0.1 h -4.9 c -0.3,0 -0.5,0.1 -0.7,0.3 -0.2,0.2 -0.3,0.4 -0.3,0.7 v 4.4 c 0,0.1 0,0.2 0.1,0.3 0,0.1 0.1,0.2 0.2,0.3 0.1,0.1 0.2,0.2 0.3,0.2 0,0.1 0.1,0.1 0.3,0.1 z"
   class="st14" /><path
   style="opacity:0.5;fill:#96b9eb;enable-background:new"
   inkscape:connector-curvature="0"
   id="path86"
   d="m 515.1,374.4 13.4,0.1 c 0.3,0 0.5,-0.1 0.7,-0.3 0.2,-0.2 0.3,-0.4 0.3,-0.7 v -4.4 c 0,-0.1 0,-0.2 -0.1,-0.3 0,-0.1 -0.1,-0.2 -0.2,-0.3 -0.1,-0.1 -0.2,-0.2 -0.3,-0.2 -0.1,0 -0.2,-0.1 -0.3,-0.1 l -13.4,-0.1 c -0.3,0 -0.5,0.1 -0.7,0.3 -0.2,0.2 -0.3,0.4 -0.3,0.7 v 4.4 c 0,0.1 0,0.2 0.1,0.3 0,0.1 0.1,0.2 0.2,0.3 0.1,0.1 0.2,0.2 0.3,0.2 0,0.1 0.1,0.1 0.3,0.1 z"
   class="st16" /><path
   style="fill:#81a5c2"
   inkscape:connector-curvature="0"
   id="path88"
   d="m 492,374.2 16.8,0.2 c 0.3,0 0.5,-0.1 0.7,-0.3 0.2,-0.2 0.3,-0.4 0.3,-0.7 V 369 c 0,-0.1 0,-0.2 -0.1,-0.3 0,-0.1 -0.1,-0.2 -0.2,-0.3 -0.1,-0.1 -0.2,-0.2 -0.3,-0.2 -0.1,0 -0.2,-0.1 -0.3,-0.1 l -16.8,-0.2 c -0.3,0 -0.5,0.1 -0.7,0.3 -0.2,0.2 -0.3,0.4 -0.3,0.7 v 4.4 c 0,0.2 0.1,0.5 0.3,0.6 0.2,0.2 0.4,0.3 0.6,0.3 z"
   class="st14" /><path
   style="opacity:0.5;fill:#96b9eb;enable-background:new"
   inkscape:connector-curvature="0"
   id="path90"
   d="m 480.9,374.1 h 4.9 c 0.3,0 0.5,-0.1 0.7,-0.3 0.2,-0.2 0.3,-0.4 0.3,-0.7 v -4.4 c 0,-0.1 0,-0.2 -0.1,-0.3 0,-0.1 -0.1,-0.2 -0.2,-0.3 -0.1,-0.1 -0.2,-0.2 -0.3,-0.2 -0.1,0 -0.2,-0.1 -0.3,-0.1 H 481 c -0.3,0 -0.5,0.1 -0.7,0.3 -0.2,0.2 -0.3,0.4 -0.3,0.7 v 4.4 c 0,0.1 0,0.2 0.1,0.3 0,0.1 0.1,0.2 0.2,0.3 0.1,0.1 0.2,0.2 0.3,0.2 0.1,0 0.2,0.1 0.3,0.1 z"
   class="st16" /><path
   style="opacity:0.5;fill:#96b9eb;enable-background:new"
   inkscape:connector-curvature="0"
   id="path92"
   d="m 470.3,374 h 4.9 c 0.3,0 0.5,-0.1 0.7,-0.3 0.2,-0.2 0.3,-0.4 0.3,-0.7 v -4.4 c 0,-0.1 0,-0.2 -0.1,-0.3 0,-0.1 -0.1,-0.2 -0.2,-0.3 -0.1,-0.1 -0.2,-0.2 -0.3,-0.2 -0.1,0 -0.2,-0.1 -0.3,-0.1 h -4.9 c -0.3,0 -0.5,0.1 -0.7,0.3 -0.2,0.2 -0.3,0.4 -0.3,0.7 v 4.4 c 0,0.1 0,0.2 0.1,0.3 0,0.1 0.1,0.2 0.2,0.3 0.1,0.1 0.2,0.2 0.3,0.2 0,0 0.2,0.1 0.3,0.1 z"
   class="st16" /><path
   style="fill:#96b9eb"
   inkscape:connector-curvature="0"
   id="path94"
   d="m 455.7,359.3 -17.5,-0.2 c -0.1,0 -0.2,0 -0.3,-0.1 -0.1,0 -0.2,-0.1 -0.3,-0.2 -0.1,-0.1 -0.1,-0.2 -0.2,-0.3 0,-0.1 -0.1,-0.2 -0.1,-0.3 v -4.4 c 0,-0.3 0.1,-0.5 0.3,-0.7 0.2,-0.2 0.4,-0.3 0.7,-0.3 l 17.5,0.2 c 0.1,0 0.2,0 0.3,0.1 0.1,0 0.2,0.1 0.3,0.2 0.1,0.1 0.1,0.2 0.2,0.3 0.1,0.1 0.1,0.2 0.1,0.3 v 4.4 c 0,0.3 -0.1,0.5 -0.3,0.7 -0.1,0.2 -0.4,0.3 -0.7,0.3 z"
   class="st15" /><path
   style="fill:#81a5c2"
   inkscape:connector-curvature="0"
   id="path96"
   d="m 451.6,373.7 -13.4,-0.1 c -0.1,0 -0.2,0 -0.3,-0.1 -0.1,0 -0.2,-0.1 -0.3,-0.2 -0.1,-0.1 -0.1,-0.2 -0.2,-0.3 0,-0.1 -0.1,-0.2 -0.1,-0.3 v -4.4 c 0,-0.3 0.1,-0.5 0.3,-0.7 0.2,-0.2 0.4,-0.3 0.7,-0.3 l 13.4,0.1 c 0.1,0 0.2,0 0.3,0.1 0.1,0 0.2,0.1 0.3,0.2 0.1,0.1 0.2,0.2 0.2,0.3 0,0.1 0.1,0.2 0.1,0.3 v 4.5 c 0,0.3 -0.1,0.5 -0.3,0.7 -0.2,0.1 -0.5,0.2 -0.7,0.2 z"
   class="st14" /><path
   style="opacity:0.5;fill:#96b9eb;enable-background:new"
   inkscape:connector-curvature="0"
   id="path98"
   d="m 454.7,150.8 -181.3,25.1 v 1 l 298,-41.1 v -1 l -115.5,15.9 11.4,-22.9 v 0 l -1.2,0.2 z"
   class="st16" /><path
   style="fill:#96b9eb"
   inkscape:connector-curvature="0"
   id="path100"
   d="m 282.3,167.6 c 0,0.6 0.1,1.2 0.3,1.7 0.2,0.5 0.6,1 1.1,1.4 0.5,0.4 1,0.7 1.6,0.8 0.6,0.2 1.2,0.2 1.8,0.1 1.3,-0.2 2.5,-0.9 3.3,-1.9 0.9,-1 1.4,-2.2 1.4,-3.6 0,-0.6 -0.1,-1.2 -0.3,-1.7 -0.2,-0.5 -0.6,-1 -1.1,-1.4 -0.5,-0.4 -1,-0.7 -1.6,-0.8 -0.6,-0.2 -1.2,-0.2 -1.8,-0.1 -1.3,0.2 -2.5,0.9 -3.3,1.9 -0.8,1 -1.3,2.3 -1.4,3.6 z"
   class="st15" /><path
   style="fill:#96b9eb"
   inkscape:connector-curvature="0"
   id="path102"
   d="m 358,248.5 c -0.1,-0.6 -0.4,-1.1 -0.8,-1.6 -0.4,-0.5 -0.8,-0.8 -1.4,-1.1 -0.5,-0.3 -1.1,-0.4 -1.7,-0.4 -0.6,0 -1.2,0.1 -1.7,0.4 -1.2,0.6 -2.2,1.5 -2.7,2.7 -0.6,1.2 -0.7,2.5 -0.4,3.8 0.1,0.6 0.4,1.1 0.8,1.6 0.4,0.5 0.8,0.8 1.4,1.1 0.6,0.3 1.1,0.4 1.7,0.4 0.6,0 1.2,-0.1 1.7,-0.4 1.2,-0.6 2.2,-1.5 2.7,-2.7 0.5,-1.2 0.7,-2.5 0.4,-3.8 z"
   class="st15" /><path
   style="fill:#96b9eb"
   inkscape:connector-curvature="0"
   id="path104"
   d="m 348.4,295.9 c 0,1.3 0.5,2.5 1.4,3.4 0.9,0.9 2.1,1.4 3.3,1.5 0.6,0 1.2,-0.1 1.8,-0.3 0.6,-0.2 1.1,-0.6 1.5,-1 0.4,-0.4 0.8,-0.9 1,-1.5 0.2,-0.6 0.4,-1.2 0.4,-1.8 0,-1.3 -0.5,-2.5 -1.4,-3.4 -0.9,-0.9 -2.1,-1.4 -3.3,-1.5 -0.6,0 -1.2,0.1 -1.8,0.3 -0.6,0.2 -1.1,0.6 -1.5,1 -0.4,0.4 -0.8,0.9 -1,1.5 -0.2,0.6 -0.4,1.2 -0.4,1.8 z"
   class="st15" /><path
   style="fill:#31507f"
   inkscape:connector-curvature="0"
   id="path106"
   d="m 560.6,129.1 -36.3,5.5 c -0.1,0 -0.3,0 -0.4,0 -0.1,0 -0.2,-0.1 -0.3,-0.2 -0.1,-0.1 -0.2,-0.2 -0.2,-0.3 -0.1,-0.1 -0.1,-0.3 -0.1,-0.4 v -6.5 c 0,-0.2 0.1,-0.5 0.2,-0.6 0.1,-0.2 0.4,-0.3 0.6,-0.3 l 36.3,-5.4 c 0.1,0 0.3,0 0.4,0 0.1,0 0.3,0.1 0.4,0.2 0.1,0.1 0.2,0.2 0.2,0.3 0.1,0.1 0.1,0.3 0.1,0.4 v 6.5 c 0,0.2 -0.1,0.5 -0.2,0.6 -0.3,0.1 -0.5,0.2 -0.7,0.2 z"
   class="st11" /><path
   style="fill:#96b9eb"
   inkscape:connector-curvature="0"
   id="path108"
   d="m 557.2,124.3 c 0,0.1 0,0.2 -0.1,0.2 l -2.1,2.4 c -0.1,0.1 -0.1,0.1 -0.2,0.1 0,0 -0.1,0 -0.1,0 0,0 -0.1,0 -0.1,-0.1 l -2.1,-1.8 c 0,0 -0.1,-0.1 -0.1,-0.1 0,0 0,-0.1 0,-0.1 0,-0.1 0,-0.2 0.1,-0.2 0.1,-0.1 0.1,-0.1 0.2,-0.1 l 4.1,-0.6 c 0,0 0.1,0 0.1,0 0,0 0.1,0 0.1,0.1 0,0 0.1,0 0.1,0.1 0,0.1 0.1,0.1 0.1,0.1 z"
   class="st15" /><path
   style="fill:#446ca9"
   inkscape:connector-curvature="0"
   id="path110"
   d="m 317.8,165.8 -19.1,2.9 c -0.1,0 -0.3,0 -0.4,0 -0.1,0 -0.3,-0.1 -0.4,-0.2 -0.1,-0.1 -0.2,-0.2 -0.2,-0.3 -0.1,-0.1 -0.1,-0.3 -0.1,-0.4 v -5.1 c 0,-0.2 0.1,-0.5 0.2,-0.6 0.1,-0.2 0.4,-0.3 0.6,-0.3 l 19.1,-2.9 c 0.1,0 0.3,0 0.4,0 0.1,0 0.3,0.1 0.4,0.2 0.1,0.1 0.2,0.2 0.2,0.3 0.1,0.1 0.1,0.3 0.1,0.4 v 5.1 c 0,0.2 -0.1,0.5 -0.2,0.6 -0.1,0.1 -0.3,0.2 -0.6,0.3 z"
   class="st17" /><path
   style="fill:#96b9eb"
   inkscape:connector-curvature="0"
   id="path112"
   d="m 495.1,146.4 -23.1,3.1 c -0.1,0 -0.3,0 -0.4,0 -0.1,0 -0.3,-0.1 -0.4,-0.2 -0.1,-0.1 -0.2,-0.2 -0.2,-0.3 -0.1,-0.1 -0.1,-0.3 -0.1,-0.4 v -0.2 c 0,-0.2 0.1,-0.5 0.2,-0.6 0.1,-0.2 0.4,-0.3 0.6,-0.3 l 23.1,-3.1 c 0.1,0 0.3,0 0.4,0 0.1,0 0.3,0.1 0.4,0.2 0.1,0.1 0.2,0.2 0.2,0.3 0.1,0.1 0.1,0.3 0.1,0.4 v 0.2 c 0,0.2 -0.1,0.5 -0.2,0.6 -0.2,0.2 -0.4,0.3 -0.6,0.3 z"
   class="st15" /><path
   style="fill:#96b9eb"
   inkscape:connector-curvature="0"
   id="path114"
   d="m 495.1,139.1 -23.1,3.5 c -0.1,0 -0.3,0 -0.4,0 -0.1,0 -0.3,-0.1 -0.4,-0.2 -0.1,-0.1 -0.2,-0.2 -0.2,-0.3 -0.1,-0.1 -0.1,-0.3 -0.1,-0.4 v -5.2 c 0,-0.2 0.1,-0.5 0.2,-0.6 0.1,-0.2 0.4,-0.3 0.6,-0.3 l 23.1,-3.5 c 0.1,0 0.3,0 0.4,0 0.1,0 0.3,0.1 0.4,0.2 0.1,0.1 0.2,0.2 0.2,0.3 0.1,0.1 0.1,0.3 0.1,0.4 v 5.1 c 0,0.2 -0.1,0.5 -0.2,0.6 -0.2,0.3 -0.4,0.4 -0.6,0.4 z"
   class="st15" /><path
   style="fill:#c9b2d0;enable-background:new"
   inkscape:connector-curvature="0"
   id="path116"
   d="m 245.8,316.7 -0.1,70.9 c 0,0.5 -0.1,1 -0.3,1.5 -0.2,0.5 -0.5,0.9 -0.9,1.2 -0.4,0.4 -0.8,0.6 -1.3,0.8 -0.5,0.2 -1,0.3 -1.5,0.2 l -84.5,-3.6 c -1,0 -2,-0.5 -2.7,-1.2 -0.7,-0.7 -1.1,-1.7 -1.1,-2.7 l 0.1,-66 z"
   class="st18" /><path
   style="fill:#5b3e63"
   inkscape:connector-curvature="0"
   id="path118"
   d="m 156,314.8 86.5,-2.1 c 0.4,0 0.8,0.1 1.2,0.2 0.4,0.2 0.7,0.4 1.1,0.7 0.3,0.3 0.5,0.6 0.7,1 0.2,0.4 0.3,0.8 0.3,1.2 v 9.9 l -92.2,1.2 v -9.6 c 0,-0.7 0.3,-1.3 0.7,-1.8 0.4,-0.4 1.1,-0.7 1.7,-0.7 z"
   class="st19" /><path
   style="fill:#ffffff"
   inkscape:connector-curvature="0"
   id="path120"
   d="m 238.9,346.3 v 17.2 c 0,0.1 -0.1,0.2 -0.1,0.3 -0.1,0.1 -0.2,0.1 -0.3,0.1 l -17.1,-0.3 c -0.1,0 -0.2,-0.1 -0.3,-0.1 -0.1,-0.1 -0.1,-0.2 -0.1,-0.3 v -16.9 c 0,-0.1 0,-0.2 0.1,-0.3 0.1,-0.1 0.2,-0.1 0.3,-0.1 h 17.1 c 0.1,0 0.2,0.1 0.3,0.2 0.1,0 0.1,0.1 0.1,0.2 z"
   class="st5" /><path
   style="opacity:0.5;fill:#a57fb0;enable-background:new"
   inkscape:connector-curvature="0"
   id="path122"
   d="m 236.8,348.5 v 12.7 c 0,0.1 0,0.2 -0.1,0.3 -0.1,0.1 -0.2,0.1 -0.3,0.1 l -12.8,-0.2 c -0.1,0 -0.1,0 -0.2,0 -0.1,0 -0.1,-0.1 -0.1,-0.1 0,0 -0.1,-0.1 -0.1,-0.1 0,-0.1 0,-0.1 0,-0.2 v -12.5 c 0,-0.1 0.1,-0.2 0.1,-0.3 0.1,-0.1 0.2,-0.1 0.3,-0.1 l 12.8,0.1 c 0.1,0 0.2,0 0.3,0.1 0,0 0.1,0.1 0.1,0.2 z"
   class="st20" /><path
   style="fill:#ffffff"
   inkscape:connector-curvature="0"
   id="path124"
   d="m 217.3,346.2 0.1,16.9 c 0,0.1 -0.1,0.2 -0.1,0.3 -0.1,0.1 -0.2,0.1 -0.3,0.1 l -17.1,-0.3 c -0.1,0 -0.2,-0.1 -0.3,-0.1 -0.1,-0.1 -0.1,-0.2 -0.1,-0.3 v -16.6 c 0,-0.1 0,-0.2 0.1,-0.3 0.1,-0.1 0.2,-0.1 0.3,-0.1 l 17,0.1 c 0.1,0 0.2,0 0.3,0.1 0,0 0.1,0.1 0.1,0.2 z"
   class="st5" /><path
   style="opacity:0.5;fill:#a57fb0;enable-background:new"
   inkscape:connector-curvature="0"
   id="path126"
   d="m 215.2,348.4 v 12.5 c 0,0.1 -0.1,0.2 -0.1,0.3 -0.1,0.1 -0.2,0.1 -0.3,0.1 L 202,361.1 c -0.1,0 -0.1,0 -0.2,0 -0.1,0 -0.1,-0.1 -0.1,-0.1 0,0 -0.1,-0.1 -0.1,-0.1 0,-0.1 0,-0.1 0,-0.2 v -12.3 c 0,-0.1 0,-0.2 0.1,-0.3 0.1,-0.1 0.2,-0.1 0.3,-0.1 l 12.8,0.1 c 0.1,0 0.1,0 0.2,0 0.1,0 0.1,0.1 0.1,0.1 0,0 0.1,0.1 0.1,0.1 0,0 0,0.1 0,0.1 z"
   class="st20" /><path
   style="fill:#ffffff"
   inkscape:connector-curvature="0"
   id="path128"
   d="m 196.3,346.2 v 16.6 c 0,0.1 -0.1,0.2 -0.1,0.3 -0.1,0.1 -0.2,0.1 -0.3,0.1 l -17.1,-0.3 c -0.1,0 -0.2,-0.1 -0.3,-0.1 -0.1,-0.1 -0.1,-0.2 -0.1,-0.3 v -16.3 c 0,-0.1 0,-0.2 0.1,-0.3 0.1,-0.1 0.2,-0.1 0.3,-0.1 h 17.1 c 0.1,0 0.1,0 0.2,0 0.1,0 0.1,0.1 0.2,0.1 0,0 0.1,0.1 0.1,0.2 -0.1,0 -0.1,0 -0.1,0.1 z"
   class="st5" /><path
   style="opacity:0.5;fill:#a57fb0;enable-background:new"
   inkscape:connector-curvature="0"
   id="path130"
   d="m 194.2,348.3 v 12.2 c 0,0.1 -0.1,0.2 -0.1,0.3 -0.1,0.1 -0.2,0.1 -0.3,0.1 L 181,360.7 c -0.1,0 -0.1,0 -0.2,0 -0.1,0 -0.1,-0.1 -0.1,-0.1 0,0 -0.1,-0.1 -0.1,-0.1 0,-0.1 0,-0.1 0,-0.2 v -12.1 c 0,-0.1 0.1,-0.2 0.1,-0.3 0.1,-0.1 0.2,-0.1 0.3,-0.1 l 12.8,0.1 c 0.1,0 0.1,0 0.2,0 0.1,0 0.1,0.1 0.2,0.1 0,0 0.1,0.1 0.1,0.1 -0.2,0.1 -0.1,0.1 -0.1,0.2 z"
   class="st20" /><path
   style="fill:#f0f3fa"
   inkscape:connector-curvature="0"
   id="path132"
   d="M 238,369.4 179.2,368 c -0.3,0 -0.5,0.1 -0.7,0.3 -0.2,0.2 -0.3,0.4 -0.3,0.7 v 13.4 c 0,0.3 0.1,0.5 0.3,0.7 0.2,0.2 0.4,0.3 0.7,0.3 l 58.8,2.2 c 0.3,0 0.5,-0.1 0.7,-0.3 0.2,-0.2 0.3,-0.4 0.3,-0.7 v -14.3 c 0,-0.3 -0.1,-0.5 -0.3,-0.7 -0.2,-0.1 -0.5,-0.2 -0.7,-0.2 z"
   class="st1" /><path
   style="fill:#f0f3fa"
   inkscape:connector-curvature="0"
   id="path134"
   d="m 237.9,333.1 -63,0.5 v 8.3 l 63.3,-0.5 c 0.1,0 0.2,0 0.3,-0.1 0.1,0 0.2,-0.1 0.3,-0.2 0.1,-0.1 0.1,-0.2 0.2,-0.3 0,-0.1 0.1,-0.2 0.1,-0.3 v -6.3 c 0,-0.3 -0.1,-0.6 -0.3,-0.8 -0.4,-0.2 -0.6,-0.3 -0.9,-0.3 z"
   class="st1" /><path
   style="fill:#5b3e63"
   inkscape:connector-curvature="0"
   id="path136"
   d="m 174.8,333.6 v 8.3 h -13 c -0.3,0 -0.6,-0.1 -0.8,-0.3 -0.2,-0.2 -0.3,-0.5 -0.3,-0.8 v -6.3 c 0,-0.1 0,-0.2 0.1,-0.3 0,-0.1 0.1,-0.2 0.2,-0.3 0.1,-0.1 0.2,-0.1 0.3,-0.2 0.1,0 0.2,-0.1 0.3,-0.1 z"
   class="st19" /><path
   style="fill:#e9f5f3"
   inkscape:connector-curvature="0"
   id="path138"
   d="m 164.2,371.3 -3.5,4.8 1.2,1.6 3.5,-4.9 c 1.6,1.3 3.7,1 5.1,-1 0.8,-1.1 1.2,-2.5 1.2,-3.9 0,-1.4 -0.4,-2.7 -1.2,-3.9 -1.6,-2.1 -4.2,-2 -5.8,0.3 -0.7,1 -1.1,2.2 -1.2,3.4 0,1.3 0.2,2.5 0.7,3.6 z M 166,366 c 0.2,-0.3 0.4,-0.5 0.7,-0.7 0.3,-0.2 0.6,-0.3 1,-0.3 0.3,0 0.7,0.1 1,0.2 0.3,0.2 0.6,0.4 0.8,0.7 0.5,0.7 0.7,1.5 0.7,2.3 0,0.8 -0.2,1.6 -0.7,2.2 -0.2,0.3 -0.4,0.5 -0.7,0.7 -0.3,0.2 -0.6,0.3 -0.9,0.3 -0.3,0 -0.7,-0.1 -1,-0.2 -0.3,-0.1 -0.6,-0.4 -0.8,-0.6 -0.5,-0.7 -0.7,-1.5 -0.7,-2.3 -0.1,-0.9 0.2,-1.7 0.6,-2.3 z"
   class="st21" /><path
   style="fill:#c9b2d0;enable-background:new"
   inkscape:connector-curvature="0"
   id="path140"
   d="m 619.4,146.2 -15.7,2.2 c -0.2,0 -0.4,0 -0.6,0 -0.2,-0.1 -0.4,-0.2 -0.5,-0.3 -0.1,-0.1 -0.3,-0.3 -0.3,-0.5 -0.1,-0.2 -0.1,-0.4 -0.1,-0.6 l 0.2,-11.5 c 0,-0.4 0.1,-0.9 0.4,-1.2 0.3,-0.4 0.6,-0.6 1.1,-0.7 l 17.2,-2.6 c 0.2,0 0.4,0 0.6,0 0.2,0.1 0.4,0.2 0.5,0.3 0.2,0.1 0.3,0.3 0.3,0.5 0.1,0.2 0.1,0.4 0.1,0.6 l -0.3,15.8 z"
   class="st18" /><path
   style="opacity:0.5;fill:#ffc844;enable-background:new"
   inkscape:connector-curvature="0"
   id="path142"
   d="m 554.3,66.6 -0.2,30.8 5.8,-4.2 27.7,-4.7 c 0.7,-0.1 1.3,-0.5 1.8,-1.1 0.5,-0.5 0.7,-1.2 0.7,-1.9 l 0.2,-25.3 c 0,-0.4 -0.1,-0.8 -0.2,-1.2 -0.2,-0.4 -0.4,-0.7 -0.7,-1 -0.3,-0.3 -0.7,-0.4 -1.1,-0.5 -0.4,-0.1 -0.8,-0.1 -1.2,0 l -29.9,5.8 c -0.8,0.2 -1.5,0.6 -2,1.2 -0.6,0.6 -0.9,1.4 -0.9,2.1 z"
   class="st22" /><path
   style="fill:#c0ece7"
   inkscape:connector-curvature="0"
   id="path144"
   d="m 653.7,101.8 10.8,-10 55.3,-7.4 c 0.8,-0.1 1.5,-0.6 2,-1.2 0.5,-0.6 0.7,-1.4 0.6,-2.2 V 30.4 c 0,-0.8 -0.2,-1.6 -0.6,-2.3 -1.2,-2.5 -3.7,-4.2 -5.7,-3.8 l -58,10.8 c -1.3,0.2 -2.4,0.8 -3.2,1.8 -0.8,1 -1.3,2.2 -1.3,3.5 z"
   class="st10" /><path
   style="fill:#96b9eb"
   inkscape:connector-curvature="0"
   id="path154"
   d="m 566.5,172.9 121.3,-12.4 c 0.7,-0.1 1.4,0 2,0.2 0.6,0.2 1.2,0.5 1.8,1 0.5,0.5 0.9,1 1.2,1.6 0.3,0.6 0.4,1.3 0.4,2 l 0.4,86.4 c 0,1.4 -0.5,2.7 -1.5,3.7 -0.9,1 -2.2,1.6 -3.6,1.7 l -121.3,6.4 c -0.7,0 -1.3,-0.1 -1.9,-0.3 -0.6,-0.2 -1.2,-0.6 -1.7,-1 -0.5,-0.5 -0.9,-1 -1.1,-1.6 -0.3,-0.6 -0.4,-1.3 -0.4,-1.9 l -0.3,-80.5 c 0,-1.3 0.5,-2.6 1.4,-3.6 0.8,-1 2,-1.6 3.3,-1.7 z"
   class="st15" /><path
   style="fill:#31507f"
   inkscape:connector-curvature="0"
   id="path156"
   d="m 687.8,160 -121.3,12.8 c -1.3,0.1 -2.6,0.8 -3.5,1.8 -0.9,1 -1.4,2.3 -1.4,3.6 l 0.1,8.2 131.5,-12.8 -0.1,-8.8 c 0,-0.7 -0.1,-1.4 -0.4,-2 -0.3,-0.6 -0.7,-1.2 -1.2,-1.6 -0.5,-0.4 -1.1,-0.8 -1.8,-1 -0.6,-0.2 -1.2,-0.2 -1.9,-0.2 z"
   class="st11" /><path
   style="fill:#dce6f8"
   inkscape:connector-curvature="0"
   id="path158"
   d="m 666.1,244.5 -0.2,-38.2 10.7,-0.6 0.2,38.2 z"
   class="st6" /><path
   style="fill:#ffffff"
   inkscape:connector-curvature="0"
   id="path160"
   d="m 644.8,245.4 -0.1,-29.2 10.7,-0.6 0.1,29.2 z"
   class="st5" /><path
   style="fill:#dce6f8"
   inkscape:connector-curvature="0"
   id="path162"
   d="m 581,248.8 -0.1,-23.3 10.7,-0.6 0.1,23.3 z"
   class="st6" /><path
   style="fill:#31507f"
   inkscape:connector-curvature="0"
   id="path164"
   d="m 623.6,246.4 -0.1,-15.5 10.7,-0.6 0.1,15.5 z"
   class="st11" /><path
   style="fill:#ffffff"
   inkscape:connector-curvature="0"
   id="path166"
   d="m 602.3,247.9 -0.2,-46.1 10.5,-0.6 0.2,46.2 z"
   class="st5" /><path
   style="fill:#dce6f8"
   inkscape:connector-curvature="0"
   id="path168"
   d="m 570.7,250.1 -0.2,-47.9 h 1.2 l 0.2,46.8 112.4,-6 v 1.2 z"
   class="st6" /><path
   style="fill:#c0ece7"
   inkscape:connector-curvature="0"
   id="path170"
   d="m 170.9,251.8 -5.8,-16 c -7.8,4.4 -11.4,15.2 -8.2,24 3.2,8.8 12.1,12.4 19.8,8 2.7,-1.6 5,-3.9 6.5,-6.7 z"
   class="st10" /><path
   style="fill:#5bb6b1"
   inkscape:connector-curvature="0"
   id="path172"
   d="m 178.6,230.8 c -1.9,-0.7 -3.9,-1 -5.9,-0.9 -2,0.2 -4,0.8 -5.7,1.8 l 5.8,16 z"
   class="st12" /><path
   style="fill:#96b9eb"
   inkscape:connector-curvature="0"
   id="path174"
   d="m 296.2,221.3 c -1.2,0.1 -2.3,0.7 -3.1,1.6 -0.8,0.9 -1.3,2 -1.3,3.2 0,0.6 0.1,1.1 0.3,1.6 0.2,0.5 0.5,1 1,1.3 0.4,0.4 0.9,0.6 1.4,0.8 0.5,0.2 1.1,0.2 1.6,0.1 1.2,-0.1 2.3,-0.7 3.1,-1.6 0.8,-0.9 1.3,-2 1.3,-3.2 0,-0.6 -0.1,-1.1 -0.3,-1.6 -0.2,-0.5 -0.5,-1 -1,-1.3 -0.4,-0.4 -0.9,-0.6 -1.4,-0.8 -0.5,-0.2 -1.1,-0.2 -1.6,-0.1 z m 0,1.3 c 0.2,0 0.3,0 0.5,0 0.2,0 0.3,0.1 0.4,0.2 0.1,0.1 0.2,0.2 0.3,0.4 0.1,0.2 0.1,0.3 0.1,0.5 0,0.4 -0.1,0.7 -0.4,1 -0.2,0.3 -0.6,0.4 -0.9,0.5 -0.2,0 -0.3,0 -0.5,0 -0.2,-0.1 -0.3,-0.1 -0.4,-0.2 -0.1,-0.1 -0.2,-0.2 -0.3,-0.4 -0.1,-0.2 -0.1,-0.3 -0.1,-0.5 0,-0.4 0.1,-0.7 0.4,-1 0.2,-0.3 0.5,-0.4 0.9,-0.5 z m 0,6.2 c -0.5,0.1 -1,0 -1.5,-0.2 -0.5,-0.2 -0.9,-0.5 -1.2,-0.9 0,-0.9 1.7,-1.5 2.6,-1.6 0.9,-0.1 2.6,0.2 2.6,1.1 -0.3,0.5 -0.7,0.8 -1.1,1.1 -0.4,0.2 -0.9,0.4 -1.4,0.5 z"
   class="st15" /><path
   style="fill:#96b9eb"
   inkscape:connector-curvature="0"
   id="path176"
   d="m 341.7,210.7 c -0.5,0 -1.1,-0.1 -1.6,-0.3 -0.5,-0.2 -1,-0.5 -1.4,-0.9 -0.4,-0.4 -0.7,-0.8 -0.9,-1.4 -0.2,-0.5 -0.3,-1 -0.3,-1.6 0,-1.2 0.5,-2.4 1.3,-3.4 0.8,-0.9 2,-1.5 3.2,-1.7 0.6,-0.1 1.2,0 1.7,0.2 0.6,0.2 1.1,0.5 1.5,0.9 0.4,0.4 0.8,0.9 1,1.4 0.2,0.5 0.3,1.1 0.3,1.7 0,1.2 -0.5,2.4 -1.3,3.4 -0.8,0.9 -2,1.5 -3.2,1.7 z m 1,-8.7 h -0.4 c -1.1,0.1 -2.2,0.7 -2.9,1.5 -0.8,0.8 -1.2,1.9 -1.2,3.1 0,0.5 0.1,1 0.3,1.5 0.2,0.5 0.5,0.9 0.9,1.3 0.4,0.3 0.8,0.6 1.3,0.8 0.5,0.2 1,0.2 1.5,0.1 1.1,-0.1 2.2,-0.7 2.9,-1.5 0.8,-0.8 1.2,-1.9 1.2,-3.1 0,-0.5 -0.1,-1 -0.3,-1.4 -0.2,-0.4 -0.4,-0.9 -0.8,-1.2 -0.3,-0.3 -0.7,-0.6 -1.2,-0.8 -0.4,-0.3 -0.8,-0.3 -1.3,-0.3 z"
   class="st15" /><path
   style="fill:#96b9eb"
   inkscape:connector-curvature="0"
   id="path178"
   d="m 344,204.3 c 0,0 0,-0.1 0,-0.1 0,0 0,-0.1 -0.1,-0.1 0,0 -0.1,0 -0.1,-0.1 0,0 -0.1,0 -0.1,0 -0.1,0 -0.2,0 -0.2,0.1 -0.1,0.1 -0.1,0.1 -0.1,0.2 0,0 0,0.1 0,0.1 0,0 0,0.1 0.1,0.1 0,0 0.1,0 0.1,0.1 0,0 0.1,0 0.1,0 0.1,0 0.2,0 0.2,-0.1 0.1,0 0.1,-0.1 0.1,-0.2 z m 0.7,-0.9 c 0,0.5 -0.1,0.9 -0.2,1.4 -0.2,0.4 -0.5,0.9 -0.8,1.2 -0.2,0.2 -0.4,0.4 -0.6,0.6 v 1.2 c 0,0 0,0.1 0,0.1 l -1.2,0.9 v 0 c 0,0 0,0 -0.1,0 l -0.2,-0.2 c 0,0 0,0 0,0 0,0 0,0 0,0 l 0.3,-0.9 -0.9,-0.8 -0.9,0.4 c 0,0 0,0 0,0 0,0 0,0 0,0 l -0.2,-0.2 c 0,0 0,0 0,-0.1 0,0 0,0 0,-0.1 l 0.7,-1.3 c 0,0 0,0 0.1,-0.1 l 1.2,-0.2 c 0.2,-0.3 0.4,-0.5 0.5,-0.7 0.3,-0.4 0.7,-0.7 1.1,-1 0.4,-0.2 0.8,-0.3 1.3,-0.3 0,0 0,0 0,0 0,0 -0.1,0 -0.1,0.1 0,-0.1 0,-0.1 0,0 0,-0.1 0,0 0,0 z"
   class="st15" /><path
   style="fill:#dce6f8"
   inkscape:connector-curvature="0"
   id="path180"
   d="m 358.4,222.5 -53.1,5.8 c -0.1,0 -0.3,0 -0.4,0 -0.1,0 -0.2,-0.1 -0.3,-0.2 -0.1,-0.1 -0.2,-0.2 -0.2,-0.3 -0.1,-0.1 -0.1,-0.3 -0.1,-0.4 v -4.6 c 0,-0.2 0.1,-0.5 0.2,-0.6 0.2,-0.2 0.4,-0.3 0.6,-0.3 l 53.1,-5.8 c 0.1,0 0.3,0 0.4,0 0.1,0 0.2,0.1 0.3,0.2 0.1,0.1 0.2,0.2 0.2,0.3 0.1,0.1 0.1,0.3 0.1,0.4 v 4.6 c 0,0.2 -0.1,0.5 -0.2,0.6 -0.1,0.2 -0.3,0.3 -0.6,0.3 z"
   class="st6" /><path
   style="fill:#96b9eb"
   inkscape:connector-curvature="0"
   id="path182"
   d="m 300.1,215.2 -7.2,0.8 c -0.1,0 -0.3,0 -0.4,0 -0.1,0 -0.2,-0.1 -0.3,-0.2 -0.1,-0.1 -0.2,-0.2 -0.2,-0.3 -0.1,-0.1 -0.1,-0.3 -0.1,-0.4 v -4.9 c 0,-0.2 0.1,-0.5 0.2,-0.6 0.2,-0.2 0.4,-0.3 0.6,-0.3 l 7.2,-0.8 c 0.1,0 0.3,0 0.4,0 0.1,0 0.2,0.1 0.3,0.2 0.1,0.1 0.2,0.2 0.2,0.3 0.1,0.1 0.1,0.3 0.1,0.4 v 4.9 c 0,0.2 -0.1,0.5 -0.2,0.6 -0.2,0.2 -0.4,0.3 -0.6,0.3 z"
   class="st15" /><path
   style="fill:#96b9eb"
   inkscape:connector-curvature="0"
   id="path184"
   d="m 358.5,202 c -0.1,-0.6 -0.4,-1.1 -0.8,-1.6 -0.4,-0.5 -0.8,-0.8 -1.4,-1.1 -0.5,-0.3 -1.1,-0.4 -1.7,-0.4 -0.6,0 -1.2,0.1 -1.7,0.4 -1.2,0.6 -2.2,1.5 -2.7,2.7 -0.6,1.2 -0.7,2.5 -0.4,3.8 0.1,0.6 0.4,1.1 0.8,1.6 0.4,0.5 0.8,0.8 1.4,1.1 0.5,0.3 1.1,0.4 1.7,0.4 0.6,0 1.2,-0.1 1.7,-0.4 1.2,-0.6 2.2,-1.5 2.7,-2.7 0.6,-1.2 0.7,-2.6 0.4,-3.8 z"
   class="st15" /><path
   style="fill:#96b9eb"
   inkscape:connector-curvature="0"
   id="path186"
   d="m 296.2,266.8 c -1.2,0.1 -2.3,0.6 -3.1,1.4 -0.8,0.9 -1.3,2 -1.3,3.2 0,0.6 0.1,1.1 0.3,1.6 0.2,0.5 0.5,1 1,1.4 0.4,0.4 0.9,0.7 1.4,0.9 0.5,0.2 1.1,0.3 1.7,0.2 1.2,-0.1 2.3,-0.6 3.1,-1.4 0.8,-0.8 1.3,-2 1.3,-3.2 0,-0.6 -0.1,-1.1 -0.3,-1.6 -0.2,-0.5 -0.5,-1 -1,-1.4 -0.4,-0.4 -0.9,-0.7 -1.4,-0.9 -0.6,-0.2 -1.2,-0.2 -1.7,-0.2 z m 0,1.3 c 0.2,0 0.3,0 0.5,0.1 0.2,0.1 0.3,0.1 0.4,0.3 0.1,0.1 0.2,0.3 0.3,0.4 0.1,0.2 0.1,0.3 0.1,0.5 0,0.4 -0.1,0.7 -0.4,0.9 -0.2,0.3 -0.6,0.4 -0.9,0.4 -0.2,0 -0.3,0 -0.5,-0.1 -0.2,-0.1 -0.3,-0.1 -0.4,-0.3 -0.1,-0.1 -0.2,-0.3 -0.3,-0.4 -0.1,-0.2 -0.1,-0.3 -0.1,-0.5 0,-0.4 0.1,-0.7 0.4,-0.9 0.2,-0.2 0.5,-0.4 0.9,-0.4 z m 0,6.2 c -0.5,0 -1,-0.1 -1.5,-0.3 -0.5,-0.2 -0.9,-0.5 -1.1,-1 0,-0.9 1.7,-1.4 2.6,-1.5 0.9,0 2.6,0.3 2.6,1.2 -0.3,0.4 -0.7,0.8 -1.1,1.1 -0.5,0.3 -1,0.5 -1.5,0.5 z"
   class="st15" /><path
   style="fill:#dce6f8"
   inkscape:connector-curvature="0"
   id="path188"
   d="m 357.9,270.2 -53.1,2.7 c -0.1,0 -0.3,0 -0.4,0 -0.1,0 -0.2,-0.1 -0.3,-0.2 -0.1,-0.1 -0.2,-0.2 -0.2,-0.3 -0.1,-0.1 -0.1,-0.3 -0.1,-0.4 v -4.6 c 0,-0.2 0.1,-0.5 0.2,-0.7 0.2,-0.2 0.4,-0.3 0.6,-0.3 l 53.1,-2.6 c 0.1,0 0.3,0 0.4,0 0.1,0 0.2,0.1 0.3,0.2 0.1,0.1 0.2,0.2 0.2,0.3 0.1,0.1 0.1,0.3 0.1,0.4 v 4.6 c 0,0.2 -0.1,0.5 -0.3,0.6 0,0.1 -0.2,0.2 -0.5,0.3 z"
   class="st6" /><path
   style="fill:#96b9eb"
   inkscape:connector-curvature="0"
   id="path190"
   d="m 300.1,258.5 -7.2,0.4 c -0.1,0 -0.3,0 -0.4,0 -0.1,0 -0.2,-0.1 -0.3,-0.2 -0.1,-0.1 -0.2,-0.2 -0.2,-0.3 -0.1,-0.1 -0.1,-0.3 -0.1,-0.4 v -5 c 0,-0.2 0.1,-0.5 0.2,-0.7 0.2,-0.2 0.4,-0.3 0.6,-0.3 l 7.2,-0.4 c 0.1,0 0.3,0 0.4,0 0.1,0 0.2,0.1 0.3,0.2 0.1,0.1 0.2,0.2 0.2,0.3 0.1,0.1 0.1,0.3 0.1,0.4 v 5 c 0,0.2 -0.1,0.5 -0.3,0.6 -0.1,0.3 -0.3,0.4 -0.5,0.4 z"
   class="st15" /><path
   style="fill:#96b9eb"
   inkscape:connector-curvature="0"
   id="path192"
   d="m 341.2,252.1 2.1,-0.2 v -0.8 c 0,-0.1 0,-0.3 -0.1,-0.4 -0.1,-0.1 -0.1,-0.2 -0.2,-0.3 -0.1,-0.1 -0.2,-0.2 -0.3,-0.2 -0.1,0 -0.3,-0.1 -0.4,0 -0.3,0 -0.6,0.2 -0.7,0.4 -0.2,0.2 -0.3,0.5 -0.3,0.8 z m 3.4,0.1 v 2.4 c 0,0.1 0,0.2 -0.1,0.3 -0.1,0.1 -0.2,0.1 -0.3,0.1 l -4,0.3 c -0.1,0 -0.1,0 -0.2,0 0,0 -0.1,0 -0.1,-0.1 0,0 -0.1,-0.1 -0.1,-0.1 0,0 0,-0.1 0,-0.1 v -2.4 c 0,-0.1 0,-0.2 0.1,-0.3 0.1,-0.1 0.2,-0.1 0.3,-0.1 h 0.1 v -0.8 c 0,-0.5 0.2,-1 0.5,-1.4 0.3,-0.4 0.8,-0.6 1.3,-0.6 0.2,0 0.5,0 0.7,0.1 0.2,0.1 0.4,0.2 0.6,0.4 0.2,0.2 0.3,0.4 0.4,0.6 0.1,0.2 0.1,0.5 0.1,0.7 v 0.8 h 0.1 c 0.1,0 0.1,0 0.2,0 0,0 0.1,0 0.1,0.1 0,0 0.1,0.1 0.1,0.1 0.2,0 0.2,0 0.2,0 z"
   class="st15" /><path
   style="fill:#96b9eb"
   inkscape:connector-curvature="0"
   id="path194"
   d="m 296.1,310.7 c -1.2,0 -2.3,0.5 -3.1,1.3 -0.8,0.8 -1.3,1.9 -1.3,3.1 0,0.6 0.1,1.1 0.3,1.7 0.2,0.6 0.5,1 0.9,1.4 0.4,0.4 0.9,0.7 1.4,0.9 0.5,0.2 1.1,0.3 1.7,0.3 1.2,0 2.3,-0.5 3.1,-1.3 0.8,-0.8 1.3,-1.9 1.3,-3.1 0,-0.6 -0.1,-1.1 -0.3,-1.7 -0.2,-0.5 -0.5,-1 -0.9,-1.4 -0.4,-0.4 -0.9,-0.7 -1.4,-0.9 -0.5,-0.2 -1.1,-0.3 -1.7,-0.3 z m 0,1.3 c 0.2,0 0.3,0 0.5,0.1 0.2,0.1 0.3,0.2 0.4,0.3 0.1,0.1 0.2,0.3 0.3,0.4 0.1,0.2 0.1,0.3 0.1,0.5 0,0.3 -0.1,0.7 -0.4,0.9 -0.2,0.2 -0.6,0.4 -0.9,0.4 -0.2,0 -0.3,0 -0.5,-0.1 -0.2,-0.1 -0.3,-0.2 -0.4,-0.3 -0.1,-0.1 -0.2,-0.3 -0.3,-0.4 -0.1,-0.2 -0.1,-0.3 -0.1,-0.5 0,-0.3 0.1,-0.7 0.4,-0.9 0.2,-0.3 0.6,-0.4 0.9,-0.4 z m 0,6.2 c -0.5,0 -1,-0.1 -1.5,-0.3 -0.5,-0.2 -0.8,-0.6 -1.1,-1 0,-0.9 1.7,-1.4 2.6,-1.4 0.9,0 2.6,0.4 2.6,1.3 -0.3,0.4 -0.7,0.8 -1.1,1.1 -0.4,0.1 -1,0.3 -1.5,0.3 z"
   class="st15" /><path
   style="fill:#96b9eb"
   inkscape:connector-curvature="0"
   id="path196"
   d="m 307,299.9 2,1.4 -0.8,-2.3 2,-1.5 -2.5,0.1 -0.8,-2.4 -0.8,2.5 -2.5,0.1 2,1.4 -0.8,2.4 z"
   class="st15" /><path
   style="fill:#dce6f8"
   inkscape:connector-curvature="0"
   id="path198"
   d="m 357.9,317.2 -53.1,1 c -0.1,0 -0.3,0 -0.4,-0.1 -0.1,-0.1 -0.2,-0.1 -0.3,-0.2 -0.1,-0.1 -0.2,-0.2 -0.2,-0.3 -0.1,-0.1 -0.1,-0.3 -0.1,-0.4 v -4.6 c 0,-0.1 0,-0.2 0.1,-0.3 0,-0.1 0.1,-0.2 0.2,-0.3 0.1,-0.1 0.2,-0.2 0.3,-0.2 0.1,0 0.2,-0.1 0.3,-0.1 l 53.1,-1 c 0.1,0 0.3,0 0.4,0.1 0.1,0.1 0.2,0.1 0.3,0.2 0.1,0.1 0.2,0.2 0.2,0.3 0.1,0.1 0.1,0.3 0.1,0.4 v 4.6 c 0,0.1 0,0.2 -0.1,0.3 -0.1,0.1 -0.1,0.2 -0.2,0.3 -0.1,0.1 -0.2,0.2 -0.3,0.2 -0.1,0.1 -0.2,0.1 -0.3,0.1 z"
   class="st6" /><path
   style="fill:#96b9eb"
   inkscape:connector-curvature="0"
   id="path200"
   d="m 300,302 -7.2,0.3 c -0.1,0 -0.3,0 -0.4,-0.1 -0.1,0 -0.2,-0.1 -0.3,-0.2 -0.1,-0.1 -0.2,-0.2 -0.2,-0.3 -0.1,-0.1 -0.1,-0.3 -0.1,-0.4 v -4.9 c 0,-0.2 0.1,-0.5 0.3,-0.7 0.2,-0.2 0.4,-0.3 0.6,-0.3 l 7.2,-0.3 c 0.1,0 0.3,0 0.4,0.1 0.1,0 0.2,0.1 0.3,0.2 0.1,0.1 0.2,0.2 0.2,0.3 0.1,0.1 0.1,0.3 0.1,0.4 v 4.9 c 0,0.2 -0.1,0.5 -0.3,0.7 -0.1,0.2 -0.4,0.3 -0.6,0.3 z"
   class="st15" /><path
   style="fill:#96b9eb"
   inkscape:connector-curvature="0"
   id="path202"
   d="m 296.1,354.5 c -0.6,0 -1.1,0.1 -1.7,0.3 -0.5,0.2 -1,0.5 -1.4,0.9 -0.4,0.4 -0.7,0.9 -0.9,1.4 -0.2,0.5 -0.3,1.1 -0.3,1.7 0,1.2 0.5,2.3 1.3,3.1 0.8,0.8 1.9,1.3 3.1,1.3 0.6,0 1.1,-0.1 1.7,-0.3 0.5,-0.2 1,-0.5 1.4,-0.9 0.4,-0.4 0.7,-0.9 0.9,-1.4 0.2,-0.5 0.3,-1.1 0.3,-1.7 0,-1.2 -0.5,-2.3 -1.3,-3.1 -0.8,-0.8 -1.9,-1.2 -3.1,-1.3 z m 0,1.3 c 0.3,0 0.7,0.1 0.9,0.4 0.2,0.2 0.4,0.6 0.4,0.9 0,0.2 0,0.3 -0.1,0.5 -0.1,0.2 -0.2,0.3 -0.3,0.4 -0.1,0.1 -0.3,0.2 -0.4,0.3 -0.1,0.1 -0.3,0.1 -0.5,0.1 -0.3,0 -0.7,-0.1 -0.9,-0.4 -0.2,-0.2 -0.4,-0.6 -0.4,-0.9 0,-0.2 0,-0.3 0.1,-0.5 0.1,-0.2 0.2,-0.3 0.3,-0.4 0.1,-0.1 0.3,-0.2 0.4,-0.3 0.2,0 0.4,-0.1 0.5,-0.1 z m 0,6.2 c -0.5,0 -1,-0.1 -1.5,-0.4 -0.5,-0.3 -0.8,-0.6 -1.1,-1 0,-0.9 1.7,-1.3 2.6,-1.3 0.9,0 2.6,0.5 2.6,1.4 -0.3,0.4 -0.7,0.8 -1.1,1 -0.5,0.2 -1,0.3 -1.5,0.3 z"
   class="st15" /><path
   style="fill:#96b9eb"
   inkscape:connector-curvature="0"
   id="path204"
   d="m 300,348.9 -7.2,-0.1 c -0.3,0 -0.5,-0.1 -0.7,-0.3 -0.2,-0.2 -0.3,-0.4 -0.3,-0.7 V 343 c 0,-0.3 0.1,-0.5 0.3,-0.7 0.2,-0.2 0.4,-0.3 0.7,-0.3 l 7.2,0.1 c 0.3,0 0.5,0.1 0.7,0.3 0.2,0.2 0.3,0.4 0.3,0.7 v 4.9 c 0,0.2 -0.1,0.5 -0.3,0.7 -0.2,0.1 -0.5,0.2 -0.7,0.2 z"
   class="st15" /><path
   style="fill:#96b9eb"
   inkscape:connector-curvature="0"
   id="path206"
   d="m 355.2,342.8 -0.1,2.7 c 0,0 0,0 0,0.1 0,0 0,0 0,0.1 0,0.1 0,0 -0.1,0 0,0 0,0 -0.1,0 l -1.9,-0.1 c 0,0 -0.1,0 -0.1,0 0,0 0,0 -0.1,0 0,0 0,0 0,-0.1 0,0 0,0 0,-0.1 V 345 c 0,0 0,0 0,-0.1 0,0 0,0 0,-0.1 0,-0.1 0,0 0.1,0 0,0 0,0 0.1,0 l 1.3,0.1 0.1,-2.1 c 0,0 0,0 0,-0.1 0,0 0,0 0,-0.1 0,0 0,0 0.1,0 0,0 0,0 0.1,0 h 0.4 c 0,0 0.1,0 0.1,0 0,0 0,0 0.1,0 0,0.1 0,0.1 0,0.2 0,0 0,0 0,0 z m 2.9,2.3 c 0,-0.7 -0.1,-1.3 -0.4,-1.9 -0.3,-0.6 -0.8,-1.1 -1.3,-1.4 -0.6,-0.4 -1.2,-0.6 -1.8,-0.6 -0.7,0 -1.3,0.1 -1.9,0.4 -0.6,0.3 -1.1,0.7 -1.4,1.3 -0.4,0.5 -0.5,1.2 -0.6,1.8 0,0.7 0.1,1.3 0.4,1.9 0.3,0.6 0.8,1.1 1.3,1.4 0.6,0.4 1.2,0.6 1.8,0.6 0.7,0 1.3,-0.1 1.9,-0.4 0.6,-0.3 1.1,-0.7 1.4,-1.3 0.4,-0.5 0.6,-1.2 0.6,-1.8 z m 0.9,0 c 0,0.8 -0.3,1.6 -0.7,2.3 -0.7,1 -1.7,1.7 -2.9,2 -1.2,0.3 -2.4,0 -3.4,-0.6 -0.7,-0.4 -1.2,-1 -1.6,-1.7 -0.4,-0.7 -0.6,-1.5 -0.5,-2.3 0,-0.8 0.3,-1.6 0.7,-2.3 0.7,-1 1.7,-1.7 2.9,-2 1.2,-0.3 2.4,0 3.4,0.6 0.7,0.4 1.2,1 1.6,1.7 0.3,0.7 0.5,1.5 0.5,2.3 z"
   class="st15" /><path
   style="fill:#dce6f8"
   inkscape:connector-curvature="0"
   id="path208"
   d="m 357.8,363.3 -53.1,-1 c -0.3,0 -0.5,-0.1 -0.7,-0.3 -0.2,-0.2 -0.3,-0.4 -0.3,-0.7 v -4.7 c 0,-0.3 0.1,-0.5 0.3,-0.7 0.2,-0.2 0.4,-0.3 0.7,-0.3 l 53.1,1 c 0.3,0 0.5,0.1 0.7,0.3 0.2,0.2 0.3,0.4 0.3,0.7 v 4.7 c 0,0.3 -0.1,0.5 -0.3,0.7 -0.2,0.2 -0.4,0.3 -0.7,0.3 z"
   class="st6" /><path
   style="fill:#96b9eb"
   inkscape:connector-curvature="0"
   id="path210"
   d="m 296.1,398.8 c -0.6,0 -1.1,0 -1.7,0.2 -0.5,0.2 -1,0.5 -1.4,0.9 -0.4,0.4 -0.7,0.9 -1,1.4 -0.2,0.5 -0.3,1.1 -0.3,1.6 0,1.2 0.5,2.3 1.3,3.2 0.8,0.9 1.9,1.4 3.1,1.5 0.6,0 1.1,0 1.7,-0.2 0.5,-0.2 1,-0.5 1.4,-0.9 0.4,-0.4 0.7,-0.8 1,-1.4 0.2,-0.5 0.3,-1.1 0.3,-1.6 0,-1.2 -0.5,-2.3 -1.3,-3.2 -0.8,-0.9 -1.9,-1.5 -3.1,-1.5 z m 0,1.3 c 0.4,0 0.7,0.2 0.9,0.4 0.2,0.3 0.4,0.6 0.4,0.9 0,0.2 0,0.3 -0.1,0.5 -0.1,0.2 -0.2,0.3 -0.3,0.4 -0.1,0.1 -0.3,0.2 -0.4,0.3 -0.2,0.1 -0.3,0.1 -0.5,0.1 -0.4,0 -0.7,-0.2 -0.9,-0.4 -0.2,-0.3 -0.4,-0.6 -0.4,-0.9 0,-0.2 0,-0.3 0.1,-0.5 0.1,-0.2 0.2,-0.3 0.3,-0.4 0.1,-0.1 0.3,-0.2 0.4,-0.3 0.2,-0.1 0.4,-0.1 0.5,-0.1 z m 0,6.2 c -0.5,0 -1,-0.2 -1.5,-0.5 -0.5,-0.3 -0.8,-0.6 -1.1,-1.1 0,-0.9 1.7,-1.2 2.6,-1.2 0.9,0.1 2.6,0.6 2.6,1.5 -0.3,0.4 -0.7,0.7 -1.1,1 -0.5,0.2 -1,0.3 -1.5,0.3 z"
   class="st15" /><path
   style="fill:#96b9eb"
   inkscape:connector-curvature="0"
   id="path212"
   d="m 307,389.8 2,1.5 -0.8,-2.4 2,-1.4 -2.5,-0.1 -0.7,-2.4 -0.8,2.4 h -2.4 l 2,1.5 -0.8,2.4 z"
   class="st15" /><path
   style="fill:#dce6f8"
   inkscape:connector-curvature="0"
   id="path214"
   d="m 357.8,410.2 -53.1,-3.1 c -0.3,0 -0.5,-0.1 -0.7,-0.3 -0.2,-0.2 -0.3,-0.4 -0.3,-0.7 v -4.6 c 0,-0.1 0,-0.2 0.1,-0.4 0,-0.1 0.1,-0.2 0.2,-0.3 0.1,-0.1 0.2,-0.1 0.3,-0.2 0.1,0 0.2,-0.1 0.4,0 l 53.1,3.1 c 0.3,0 0.5,0.1 0.7,0.3 0.2,0.2 0.3,0.4 0.3,0.7 v 4.6 c 0,0.1 0,0.2 -0.1,0.4 0,0.1 -0.1,0.2 -0.2,0.3 -0.1,0.1 -0.2,0.2 -0.3,0.2 -0.1,0 -0.3,0 -0.4,0 z"
   class="st6" /><path
   style="fill:#96b9eb"
   inkscape:connector-curvature="0"
   id="path216"
   d="m 299.9,391.4 -7.2,-0.2 c -0.3,0 -0.5,-0.1 -0.7,-0.3 -0.2,-0.2 -0.3,-0.4 -0.3,-0.7 v -4.9 c 0,-0.3 0.1,-0.5 0.3,-0.7 0.2,-0.2 0.4,-0.3 0.7,-0.3 l 7.2,0.2 c 0.3,0 0.5,0.1 0.7,0.3 0.2,0.2 0.3,0.4 0.3,0.7 v 4.9 c 0,0.3 -0.1,0.5 -0.3,0.7 -0.2,0.2 -0.4,0.3 -0.7,0.3 z"
   class="st15" /><path
   style="fill:#96b9eb"
   inkscape:connector-curvature="0"
   id="path218"
   d="m 349.3,389.1 c 0,1.3 0.5,2.5 1.4,3.4 0.9,0.9 2.1,1.4 3.3,1.5 0.6,0 1.2,-0.1 1.8,-0.3 0.6,-0.2 1.1,-0.6 1.5,-1 0.4,-0.4 0.8,-0.9 1,-1.5 0.2,-0.6 0.4,-1.2 0.4,-1.8 0,-1.3 -0.5,-2.5 -1.4,-3.4 -0.9,-0.9 -2.1,-1.4 -3.3,-1.5 -0.6,0 -1.2,0.1 -1.8,0.3 -0.6,0.2 -1.1,0.6 -1.5,1 -0.4,0.4 -0.8,0.9 -1,1.5 -0.3,0.5 -0.4,1.1 -0.4,1.8 z"
   class="st15" /><path
   style="opacity:0.6;fill:#96b9eb;enable-background:new"
   inkscape:connector-curvature="0"
   id="path220"
   d="m 703.3,326.4 c 4.1,0 7.5,-3.4 7.5,-7.5 0,-4.1 -3.3,-7.5 -7.5,-7.5 -4.1,0 -7.5,3.4 -7.5,7.5 0,4.1 3.4,7.5 7.5,7.5 z"
   class="st24" /><path
   style="fill:#dce6f8"
   inkscape:connector-curvature="0"
   id="path222"
   d="m 338.2,97.4 c 1.4,-1.4 1.5,-3.7 0.1,-5.1 -1.4,-1.4 -3.7,-1.5 -5.1,-0.1 -1.4,1.4 -1.5,3.7 -0.1,5.1 1.3,1.4 3.6,1.5 5.1,0.1 z"
   class="st6" /><path
   style="fill:#dce6f8"
   inkscape:connector-curvature="0"
   id="path224"
   d="m 507.2,56.8 c 1.4,-1.4 1.5,-3.7 0.1,-5.1 -1.4,-1.4 -3.7,-1.5 -5.1,-0.1 -1.4,1.4 -1.5,3.7 -0.1,5.1 1.3,1.4 3.6,1.5 5.1,0.1 z"
   class="st6" /><path
   style="fill:#dce6f8"
   inkscape:connector-curvature="0"
   id="path226"
   d="m 312.7,75 c 4.4,-0.1 7.8,-3.7 7.8,-8 -0.1,-4.4 -3.7,-7.8 -8,-7.8 -4.4,0.1 -7.8,3.7 -7.8,8 0.1,4.4 3.7,7.8 8,7.8 z"
   class="st6" /><path
   style="fill:#dce6f8"
   inkscape:connector-curvature="0"
   id="path228"
   d="m 606.4,507.8 c 4.4,-0.1 7.8,-3.7 7.8,-8 -0.1,-4.4 -3.7,-7.8 -8,-7.8 -4.4,0.1 -7.8,3.7 -7.8,8 0,4.4 3.6,7.9 8,7.8 z"
   class="st6" /><path
   style="fill:#dce6f8"
   inkscape:connector-curvature="0"
   id="path230"
   d="m 254.9,487.7 c 0.4,-2.4 -1.2,-4.6 -3.6,-5 -2.4,-0.4 -4.6,1.2 -5,3.6 -0.4,2.4 1.2,4.6 3.6,5 2.3,0.4 4.6,-1.2 5,-3.6 z"
   class="st6" /><path
   style="fill:#d8dfe1"
   inkscape:connector-curvature="0"
   id="path232"
   d="m 628.4,375 c 0,5.1 7.9,5.1 7.9,0 0,-5.1 -7.9,-5 -7.9,0 z"
   class="st25" /><path
   style="fill:none;stroke:#fec751;stroke-width:2;stroke-linecap:round;stroke-linejoin:round;stroke-miterlimit:10"
   inkscape:connector-curvature="0"
   id="path234"
   d="m 176.7,272.3 c 1.6,6.9 6.2,9.7 11.1,10.6 4.2,0.8 8.5,0.7 12.7,0 4,-0.7 8.6,-1.8 11.7,-4.7 0.4,-0.3 0.7,-0.7 0.9,-1.2 0.7,-1.8 -1.3,-1.9 -2.5,-1.8 -5.1,0.4 -12.5,3.2 -12.9,9.3 -0.1,2.1 1.1,4.1 2.7,5.5 1.6,1.3 3.8,2 5.8,2.3 3.5,0.6 7,0.6 10.4,-0.1"
   class="st26" /><path
   style="fill:none;stroke:#fec751;stroke-width:2;stroke-linecap:round;stroke-linejoin:round;stroke-miterlimit:10"
   inkscape:connector-curvature="0"
   id="path236"
   d="m 171.3,280.2 c 1.4,-1.7 2.2,-3.9 2.2,-6"
   class="st26" /><path
   style="fill:none;stroke:#fec751;stroke-width:2;stroke-linecap:round;stroke-linejoin:round;stroke-miterlimit:10"
   inkscape:connector-curvature="0"
   id="path238"
   d="m 180.3,270.6 c 1.3,1.7 3.4,2.8 5.5,3.2"
   class="st26" /><path
   style="fill:none;stroke:#fec751;stroke-width:2.5;stroke-linecap:round;stroke-linejoin:round;stroke-miterlimit:10"
   inkscape:connector-curvature="0"
   id="path240"
   d="m 539.2,391.6 c 23.1,-0.4 44,-14.4 54.5,-34.8 2.3,-4.4 3.9,-9.2 3.5,-14 -0.9,-8.7 -10.1,-16.1 -19.8,-16 -3.3,0 -7,1.2 -8.3,3.9 -1.1,2.3 0,5.1 2,6.8 2,1.7 4.7,2.7 7.3,3.3 23.6,5.8 50.3,-7.6 63.5,-25 11.2,-14.7 15.4,-33.3 17.5,-50.8"
   class="st27" /><path
   style="fill:none;stroke:#fec751;stroke-width:2.5;stroke-linecap:round;stroke-linejoin:round;stroke-miterlimit:10"
   inkscape:connector-curvature="0"
   id="path242"
   d="m 646.7,274.2 c 3.6,-2.1 6.4,-5.3 8.2,-9.1"
   class="st27" /><path
   style="fill:none;stroke:#fec751;stroke-width:2.5;stroke-linecap:round;stroke-linejoin:round;stroke-miterlimit:10"
   inkscape:connector-curvature="0"
   id="path244"
   d="m 663.3,264.4 c 1.8,3.8 4.6,6.9 8.2,9.1"
   class="st27" /><path
   style="fill:none;stroke:#fec751;stroke-width:2.5;stroke-linecap:round;stroke-linejoin:round;stroke-miterlimit:10"
   inkscape:connector-curvature="0"
   id="path246"
   d="m 562.8,341.5 c -0.9,3.8 1.6,7.6 5.1,9.8 0.2,0.2 0.4,0.3 0.8,0.5"
   class="st27" /><path
   style="fill:#90a3cb"
   inkscape:connector-curvature="0"
   id="path248"
   d="m 321.2,566.7 c -0.3,0.3 -0.4,0.7 -0.4,1.1 l -0.3,7.1 v 3.3 c 0,0.3 0.1,0.6 0.1,0.9 0.3,1.1 0.9,2.1 1.7,3 0.8,0.8 1.8,1.4 2.9,1.8 l 0.4,0.1 c 4.4,1.4 8.8,0 12.4,-3.1 0.2,-0.1 0.3,-0.3 0.5,-0.5 3.9,-5 3.4,-6.2 6.6,-10.6 2.9,-4 11.7,-10.2 9.7,-14.1 -2,-3.9 -3.6,-5 -7.2,-5.1 -4,0.1 -7.9,1.7 -10.9,4.3 l 0.1,3.3 -4.4,4.3 c -0.1,0.1 -4.8,-2.6 -11.2,4.2 z"
   class="st28" /><path
   style="fill:#446ca9"
   inkscape:connector-curvature="0"
   id="path250"
   d="m 321.2,563.3 c -0.3,0.3 -0.4,0.7 -0.4,1.1 l -0.3,10.5 c 0,0.3 0.1,0.6 0.1,0.9 0.3,1.1 0.9,2.1 1.7,3 0.8,0.8 1.8,1.4 2.9,1.8 l 0.4,0.1 c 2.1,0.7 4.3,0.8 6.4,0.3 2.1,-0.5 4.1,-1.5 5.6,-3.1 0.2,-0.1 0.3,-0.3 0.5,-0.5 3.9,-5 3.8,-6.6 6.9,-11 2.9,-4 11.7,-10.2 9.7,-14.1 -2,-3.9 -3.6,-5.1 -7.2,-5.1 -4,0.1 -7.9,1.6 -10.9,4.3 l 0.1,3.3 -4.4,4.3 c 0,0.1 -4.7,-2.5 -11.1,4.2 z"
   class="st17" /><path
   style="fill:#ffbdb9"
   inkscape:connector-curvature="0"
   id="path252"
   d="m 323.7,552.4 -0.9,10.8 c 0,0.2 0,0.4 0.1,0.6 1.5,4.5 8.7,3.7 11.6,2 0.2,-0.1 0.4,-0.3 0.5,-0.5 0.1,-0.2 0.2,-0.5 0.2,-0.7 l 1.2,-17.2 z"
   class="st29" /><path
   style="fill:#90a3cb"
   inkscape:connector-curvature="0"
   id="path254"
   d="m 354,586.6 v 2.9 c 0,0.5 0.1,1 0.4,1.4 0.9,1.4 3.6,4.2 10,3.9 8.3,-0.4 9.3,-4.5 18.1,-6.1 8.8,-1.6 11.5,-0.7 16.6,-2.6 1.7,-0.7 4.8,-3 4.8,-4.8 v -5.6 z"
   class="st28" /><path
   style="fill:#446ca9"
   inkscape:connector-curvature="0"
   id="path256"
   d="m 402.2,580.5 c -2.1,2.1 -4.9,3.5 -7.9,3.9 -5.9,0.7 -11.1,0.9 -17.2,3 -6.1,2.1 -11.8,4.7 -16.9,3.6 -5,-1.1 -6.4,-3.8 -6.3,-4.5 0.2,-0.7 0.6,-8.8 0.8,-12.9 0,-0.6 0.2,-1.2 0.6,-1.6 0.4,-0.5 0.9,-0.8 1.5,-0.9 l 8.8,-1.5 6.2,-2.7 c 0,0 7.7,0.5 12.6,0.9 5,0.4 8,0.2 12.1,0.8 4.1,0.6 5.9,2.8 6.6,4.7 0.7,2.1 0.9,5.5 -0.9,7.2 z"
   class="st17" /><path
   style="fill:#ffbdb9"
   inkscape:connector-curvature="0"
   id="path258"
   d="m 357.8,555.7 -0.8,16.7 c 0,0.1 0,0.2 0.1,0.2 0,0.1 0.1,0.1 0.2,0.2 3.6,2.3 11.1,2.4 14.1,-0.4 0,0 0.1,-0.1 0.1,-0.1 0,-0.1 0,-0.1 0,-0.2 l 1,-20.8 z"
   class="st29" /><path
   style="fill:#003a5d"
   inkscape:connector-curvature="0"
   id="path260"
   d="m 385.6,375.1 c 0,0 -2.6,91.1 -3.7,100.1 -1.1,9 -7,89.1 -7,89.1 0,0 -11.3,6.7 -22.1,0 l 5.4,-89.1 -2.5,-66.8 h -5.5 l -3.8,63.2 -5.4,84.6 c 0,0 -11.8,6.1 -21.5,-1.7 l 5.4,-82.9 -3.3,-61.8 c -0.2,-4.9 -1,-9.7 -2.4,-14.4 -1.6,-5.6 -2,-11.4 -1.3,-17.2 z"
   class="st30" /><path
   style="fill:#ffbdb9"
   inkscape:connector-curvature="0"
   id="path262"
   d="m 380.3,233.1 3.3,9.2 -5.8,2.1 z"
   class="st29" /><path
   style="fill:#ffbdb9"
   inkscape:connector-curvature="0"
   id="path264"
   d="m 370.4,210.3 c 0,0 8.2,8.1 9.2,14.5 1,6.4 1.9,30.4 -3.7,33.9 -7.1,4.4 -21,1.2 -30.1,-1.2 -9.1,-2.4 -20.4,-24 -9.7,-38.5 10.7,-14.5 22.9,-16.2 34.3,-8.7 z"
   class="st29" /><path
   style="fill:#ffbdb9"
   inkscape:connector-curvature="0"
   id="path266"
   d="m 349.1,251.9 -7.4,18.3 c 0.5,1.2 6.9,9.6 18.1,4.3 l 4.8,-21.1 z"
   class="st29" /><path
   style="fill:#ffffff"
   inkscape:connector-curvature="0"
   id="path268"
   d="m 430.1,72.1 c 0.3,0 0.6,-0.1 0.9,-0.3 0.3,-0.2 0.5,-0.4 0.6,-0.7 0.1,-0.3 0.2,-0.6 0.1,-1 -0.1,-0.3 -0.2,-0.6 -0.5,-0.8 -0.2,-0.2 -0.5,-0.4 -0.8,-0.5 -0.3,-0.1 -0.7,0 -1,0.1 -0.3,0.1 -0.6,0.3 -0.7,0.6 -0.2,0.3 -0.3,0.6 -0.3,0.9 0,0.4 0.2,0.9 0.5,1.2 0.3,0.3 0.7,0.5 1.2,0.5 z"
   class="st5" /><path
   style="fill:#003a5d"
   inkscape:connector-curvature="0"
   id="path270"
   d="m 333.5,211.8 c 0,0 -7.2,1.9 -8.6,12.5 -0.6,7.2 -1.5,15.7 11.8,26.8 6.2,5.2 7.7,9.1 8,10.8 0,0.3 0.2,0.5 0.4,0.7 0.2,0.2 0.5,0.3 0.8,0.2 2.7,-0.4 5.2,-1.6 7,-3.6 4.1,-4.1 4.7,-12.6 5.9,-16.4 1.2,-3.9 5.3,-5.6 8.1,-2.4 1.2,1.6 1.7,3.6 1.6,5.6 l 2.4,-1 c 0,0 -2.2,-7.6 -1.3,-11.1 0.3,-0.6 0.7,-1.1 1.2,-1.6 0.6,-0.6 0.9,-1.3 0.9,-2.1 0,-0.8 -0.2,-1.6 -0.8,-2.2 l -2.9,-3 c -0.1,-0.1 -0.1,-0.2 -0.1,-0.3 0,-0.1 0,-0.2 0.1,-0.3 0.1,-0.1 0.1,-0.2 0.2,-0.2 0.1,-0.1 0.2,-0.1 0.3,-0.1 18,-0.6 16.9,-12.3 17,-16.7 0,-0.4 0,-0.8 -0.3,-1.2 -0.2,-0.4 -0.5,-0.6 -0.9,-0.8 -0.2,-0.1 -0.5,-0.2 -0.8,-0.2 -0.3,0 -0.5,0.1 -0.8,0.2 -2.1,0.9 -4.4,1.3 -6.7,1.3 -1.3,-0.1 -1.7,-0.5 -2.1,-1.3 -0.5,-1.2 -0.9,-2.1 -2,-1.8 -1.4,0.6 -3,1 -4.5,1 -0.7,0 -3.3,-0.3 -4.6,-0.5 -8,-1 -25.1,-5.9 -29.3,7.7 z"
   class="st30" /><path
   style="fill:#ffbdb9"
   inkscape:connector-curvature="0"
   id="path272"
   d="m 367.4,241 c -1.7,-3.6 -5.2,-4.6 -7.8,-2.4 -1.7,1.4 -2.3,4.7 0.1,8.8 0.9,1.6 2.2,3.1 3.6,4.2 0.8,0.6 1.6,1 2.5,1.5 4.3,2.1 2,-1.9 3.6,-5.2 -0.5,-2.4 -1.2,-4.7 -2,-6.9 z"
   class="st29" /><path
   style="fill:#ffbdb9"
   inkscape:connector-curvature="0"
   id="path274"
   d="m 457.9,227.1 c -0.3,-1.1 5.7,-12.8 7.7,-15.5 2,-2.8 9.3,-11.6 9.3,-11.6 0,0 1.8,-2.4 3.2,-4.4 0.9,-1.3 2.9,-2.6 2.9,0.3 0,1.8 -5.5,9.5 -5.5,11.5 0,2 3.6,6.7 3.2,9.3 -0.2,2.6 -1,5.1 -2.4,7.3 -1.4,1.9 -8.9,8.8 -10.7,8.8 -1.7,-0.2 -7.4,-4.7 -7.7,-5.7 z"
   class="st29" /><path
   style="fill:#ff767a"
   inkscape:connector-curvature="0"
   id="path276"
   d="m 376.9,280.7 c -1.1,-1.1 -2.2,-2.1 -3.5,-3 -9.5,-6.8 -27.9,-12.2 -37.3,-13.2 -13.9,-1.6 -19.3,8.7 -18.2,17.3 1.1,8.6 -1.1,39 -0.5,46.5 0.6,7.5 -3.8,46.3 0.5,50 4.3,3.8 26.4,8.1 46.8,5.7 20.4,-2.4 21.5,-6.7 21.5,-14.2 0,-7.5 -5.8,-43.4 -4.7,-54.4 -0.1,-0.1 2.9,-26.5 -4.6,-34.7 z"
   class="st31" /><path
   style="fill:#ff767a"
   inkscape:connector-curvature="0"
   id="path278"
   d="m 366.4,285.6 c 1.7,-2.8 50.4,-21.3 52.1,-22.3 1.8,-1 37.2,-36.7 37.2,-36.7 3.3,-2.1 12.2,5.5 10.9,7.8 -1.1,1.9 -27.6,38 -29.6,39.7 -2,1.7 -67.8,43.2 -67.8,43.2 0,0 -4.5,-29 -2.8,-31.7 z"
   class="st31" /><path
   style="fill:#ff767a"
   inkscape:connector-curvature="0"
   id="path280"
   d="m 313.4,344.8 c -4.9,4.7 -17.8,4.1 -15.6,-8.4 2.1,-12.5 18.2,-60.6 22,-63.8 3.8,-3.2 19.3,3.9 19.3,3.9 0,0 -14.6,57.7 -25.7,68.3 z"
   class="st31" /><path
   style="fill:#ff767a"
   inkscape:connector-curvature="0"
   id="path282"
   d="m 384.5,277 c 4,-1.7 -4.5,11.6 -4.5,11.6 0,0 -15.8,-2.4 -15.4,-3.7 0.4,-1.3 6.6,-8.1 7.7,-7.9 1.1,0.2 10.6,0.7 12.2,0 z"
   class="st31" /><path
   style="fill:url(#SVGID_3_)"
   inkscape:connector-curvature="0"
   id="path296"
   d="M -996.8,-998.2"
   class="st33" />
<g
   id="Perspective"
   class="st34">
	<line
   class="st35"
   x1="879.2"
   y1="36.4"
   x2="-952.4"
   y2="336.6"
   id="line299" />
	<line
   class="st35"
   x1="884.2"
   y1="95.5"
   x2="-949.8"
   y2="337.4"
   id="line301" />
	<line
   class="st35"
   x1="880.8"
   y1="-6.3"
   x2="-950.1"
   y2="336.6"
   id="line303" />
	<line
   class="st35"
   x1="881.5"
   y1="493.5"
   x2="-953.5"
   y2="337.7"
   id="line305" />
	<line
   class="st35"
   x1="-952.4"
   y1="337.7"
   x2="879.6"
   y2="144.2"
   id="line307" />
	<line
   class="st35"
   x1="-951.2"
   y1="337.7"
   x2="879.6"
   y2="248.3"
   id="line309" />
	<line
   class="st35"
   x1="-952.3"
   y1="338.3"
   x2="880.7"
   y2="338.3"
   id="line311" />
	<line
   class="st35"
   x1="-951.8"
   y1="337.7"
   x2="882.5"
   y2="409.5"
   id="line313" />
</g>
</svg>